<?xml version="1.0" encoding="UTF-8"?> <svg xmlns="http://www.w3.org/2000/svg" width="281.788" height="60" viewBox="0 0 281.788 60"><title>cheetah-conservation-fund-30-logo</title><g><path d="M124.0343,15.3231q0-7.8924,2.7693-11.0769c1.8461-2.1231,4.8923-3.2308,9.2307-3.2308s7.3847,1.1077,9.2308,3.2308,2.7692,5.8153,2.7692,11.0769v3.0461h-9.6V13.1077a7.7593,7.7593,0,0,0-.4615-3.3231,2.166,2.166,0,0,0-1.8461-.7384,2.1406,2.1406,0,0,0-1.8462.6461c-.3692.4615-.4615,1.4769-.4615,3.0462V32.9538a7.0257,7.0257,0,0,0,.4615,3.1385,2.1407,2.1407,0,0,0,1.8462.6462A2.166,2.166,0,0,0,137.9728,36c.3692-.4615.4615-1.5692.4615-3.3231V25.2923h9.6v5.1692q0,7.8924-2.7692,11.077c-1.8461,2.123-4.8923,3.2307-9.2308,3.2307s-7.3846-1.1077-9.2307-3.2307-2.7693-5.8154-2.7693-11.077V15.3231" fill="#d89d29"></path><path d="M149.9728.9231h8.7692V8.5846A5.5228,5.5228,0,0,1,161.05,7.1077a7.6426,7.6426,0,0,1,2.9539-.4615c2.7692,0,4.7077.8307,5.9076,2.4923s1.7539,4.6153,1.7539,8.8615V44.3077h-8.8616V17.1692a7.24,7.24,0,0,0-.4615-3.2307,2.2285,2.2285,0,0,0-3.1385,0,7.24,7.24,0,0,0-.4615,3.2307V44.2154h-8.8615V.9231" fill="#d89d29"></path><path d="M195.7574,27.0462H182.65v7.0153a7.2383,7.2383,0,0,0,.4616,3.2308c.2769.4615.8307.6462,1.6615.6462s1.3846-.1847,1.6615-.6462a7.2383,7.2383,0,0,0,.4616-3.2308V29.0769h8.8615v3.6923c0,4.4308-.8307,7.5693-2.4923,9.3231s-4.523,2.6769-8.4923,2.6769-6.8307-.923-8.4923-2.6769-2.4923-4.8923-2.4923-9.3231v-14.4c0-4.4307.8308-7.4769,2.4923-9.2307s4.5231-2.677,8.4923-2.677,6.8308.9231,8.4923,2.677,2.4923,4.8923,2.4923,9.323v8.5847m-13.2-9.6924v2.8616h4.2462V17.3538a7.983,7.983,0,0,0-.4616-3.4153c-.2769-.4616-.8307-.6462-1.6615-.6462s-1.3846.1846-1.6616.6462A8.2969,8.2969,0,0,0,182.5574,17.3538Z" fill="#d89d29"></path><path d="M219.7574,27.0462H206.65v7.0153a7.2383,7.2383,0,0,0,.4616,3.2308c.2769.4615.8307.6462,1.6615.6462s1.3846-.1847,1.6615-.6462a7.2383,7.2383,0,0,0,.4616-3.2308V29.0769h8.8615v3.6923c0,4.4308-.8307,7.5693-2.4923,9.3231s-4.523,2.6769-8.4923,2.6769-6.8307-.923-8.4923-2.6769-2.4923-4.8923-2.4923-9.3231v-14.4c0-4.4307.8308-7.4769,2.4923-9.2307s4.5231-2.677,8.4923-2.677,6.8308.9231,8.4923,2.677,2.4923,4.8923,2.4923,9.323v8.5847M206.65,17.3538v2.8616h4.3385V17.3538a7.983,7.983,0,0,0-.4616-3.4153c-.2769-.4616-.8307-.6462-1.6615-.6462s-1.3846.1846-1.6615.6462C206.8343,14.4,206.65,15.6,206.65,17.3538Z" fill="#d89d29"></path><path d="M220.6805,7.0154h2.2154V2.6769L231.7574.9231V7.0154h2.2154v6.8308h-2.2154v21.323a2.9153,2.9153,0,0,0,.4616,1.9385,2.7443,2.7443,0,0,0,1.7538.3692v6.3693a10.4087,10.4087,0,0,1-2.2154.7384,10.8547,10.8547,0,0,1-2.4923.2769c-2.4,0-4.0615-.5538-4.8923-1.5692q-1.3846-1.5231-1.3846-6.6461v-22.8h-2.3077V7.0154" fill="#d89d29"></path><path d="M235.7266,18.1846v-2.4c0-3.1384.8308-5.5384,2.4924-7.0154,1.6615-1.5692,4.2461-2.3077,7.7538-2.3077,3.6923,0,6.3692.8308,8.1231,2.4923,1.6615,1.6616,2.4923,4.4308,2.4923,8.1231V44.1231h-8.4V42.0923a6.5993,6.5993,0,0,1-2.5846,1.9385,6.8231,6.8231,0,0,1-3.1385.6461,6.9657,6.9657,0,0,1-5.5385-2.2154c-1.2923-1.4769-1.9384-3.6923-1.9384-6.4615V30.4615c0-2.8615.6461-5.0769,2.0308-6.6461s4.8923-3.5077,10.7077-6V16.5231a5.6749,5.6749,0,0,0-.4616-2.7693,2.2288,2.2288,0,0,0-3.1385,0,5.9424,5.9424,0,0,0-.4615,2.7693V18h-7.9385m12,6.7385a9.3224,9.3224,0,0,0-3.1384,2.6769,8.2791,8.2791,0,0,0-.9231,4.5231v2.123a7.24,7.24,0,0,0,.4615,3.2308,2.2285,2.2285,0,0,0,3.1385,0,7.24,7.24,0,0,0,.4616-3.2308v-9.323Z" fill="#d89d29"></path><path d="M258.8036.9231h8.7692V8.5846a5.5221,5.5221,0,0,1,2.3077-1.4769,7.6421,7.6421,0,0,1,2.9538-.4615c2.7693,0,4.7077.8307,5.9077,2.4923s1.7539,4.6153,1.7539,8.8615V44.3077h-8.8616V17.1692a7.24,7.24,0,0,0-.4615-3.2307,2.2285,2.2285,0,0,0-3.1385,0,7.24,7.24,0,0,0-.4615,3.2307V44.2154h-8.8616V.9231" fill="#d89d29"></path><path d="M130.4036,49.3846a6.0274,6.0274,0,0,1,2.6769.6462v1.3846a4.4669,4.4669,0,0,0-2.6769-.9231,3.6448,3.6448,0,0,0-3.6923,3.6923,3.5621,3.5621,0,0,0,3.7846,3.6923,4.9741,4.9741,0,0,0,2.7692-.9231v1.3847a5.3823,5.3823,0,0,1-2.7692.7384,4.8307,4.8307,0,0,1-4.9846-4.8923,4.7318,4.7318,0,0,1,4.8923-4.8"></path><path d="M140.0959,49.3846a4.8932,4.8932,0,1,1-4.8,4.8923,4.6788,4.6788,0,0,1,4.8-4.8923m0,8.5846a3.6252,3.6252,0,0,0,3.6-3.6923,3.5155,3.5155,0,0,0-3.6-3.6923,3.6252,3.6252,0,0,0-3.6,3.6923A3.5681,3.5681,0,0,0,140.0959,57.9692Z"></path><path d="M147.2959,58.9846V49.5692h1.2l3.9692,5.2616,1.6616,2.2154h0v-7.477h1.2v9.5077h-1.2l-3.9693-5.2615L148.4959,51.6h0v7.4769h-1.2"></path><path d="M158.0959,57.0462a5.3957,5.3957,0,0,0,2.8615,1.0153c1.1077,0,1.9385-.5538,1.9385-1.5692,0-1.2-1.1077-1.3846-2.4-1.7538s-2.6769-.9231-2.6769-2.677c0-1.6615,1.2-2.6769,3.0461-2.6769a5.0018,5.0018,0,0,1,2.7692.7385v1.2923a4.7356,4.7356,0,0,0-2.7692-.9231c-1.1077,0-1.8461.4615-1.8461,1.3846,0,1.2,1.1077,1.3846,2.2153,1.6616,1.3847.3692,2.7693.923,2.7693,2.7692,0,1.7538-1.2923,2.7692-3.1385,2.7692a6.2828,6.2828,0,0,1-2.8615-.7384V57.0462"></path><polyline points="166.865 49.569 172.311 49.569 172.311 50.677 168.065 50.677 168.065 53.538 171.757 53.538 171.757 54.646 168.065 54.646 168.065 57.877 172.404 57.877 172.404 58.985 166.865 58.985 166.865 49.569"></polyline><path d="M175.2651,49.5692H177.85a5.3149,5.3149,0,0,1,2.6769.4616,2.3862,2.3862,0,0,1,1.2923,2.2154,2.4851,2.4851,0,0,1-1.2,2.2153,2.6226,2.6226,0,0,1-1.1076.3693l3.0461,4.1538h-1.5692l-2.8616-4.0615h-1.5692v4.0615h-1.2V49.5692m2.7692,4.3385a2.7516,2.7516,0,0,0,1.8462-.4615,1.3716,1.3716,0,0,0,.5538-1.2,1.5187,1.5187,0,0,0-.7384-1.3847,4.3188,4.3188,0,0,0-2.0308-.2769h-1.2v3.2308h1.5692Z"></path><path d="M183.4805,49.5692h1.3846l2.0308,5.3539c.2769.8307.6461,1.6615.923,2.4923h0c.277-.8308.6462-1.6616.9231-2.5846l2.0308-5.2616h1.2923l-3.6,9.5077h-1.2923l-3.6923-9.5077"></path><path d="M195.85,49.5692h1.2l3.8769,9.5077h-1.2923L198.5267,56.4h-4.2462l-1.1077,2.6769h-1.2923l3.9692-9.5077m-1.1077,5.7231h3.4154l-.7385-1.9385c-.2769-.7384-.6461-1.5692-.923-2.3076h0c-.277.7384-.6462,1.5692-.9231,2.4Z"></path><polyline points="204.25 50.677 201.111 50.677 201.111 49.569 208.68 49.569 208.68 50.677 205.542 50.677 205.542 58.985 204.25 58.985 204.25 50.677"></polyline><rect x="211.0805" y="49.5692" width="1.2" height="9.5077"></rect><path d="M219.7574,49.3846a4.8932,4.8932,0,1,1-4.8,4.8923,4.7327,4.7327,0,0,1,4.8-4.8923m0,8.5846a3.6251,3.6251,0,0,0,3.6-3.6923,3.5154,3.5154,0,0,0-3.6-3.6923,3.6935,3.6935,0,0,0,0,7.3846Z"></path><path d="M227.142,58.9846V49.5692h1.2l3.9693,5.2616,1.6615,2.2154h0v-7.477h1.2v9.5077h-1.2l-3.9692-5.2615L228.342,51.6h0v7.4769h-1.2"></path><polyline points="243.942 49.569 249.48 49.569 249.48 50.677 245.142 50.677 245.142 53.723 249.019 53.723 249.019 54.831 245.142 54.831 245.142 58.985 243.942 58.985 243.942 49.569"></polyline><path d="M252.0651,54.5538V49.5692h1.2v4.8923a5.6318,5.6318,0,0,0,.3692,2.4923,2.7693,2.7693,0,0,0,4.4308,0,5.4282,5.4282,0,0,0,.3692-2.4V49.5692h1.2v4.8923a6.13,6.13,0,0,1-.6462,3.3231,4.2721,4.2721,0,0,1-6.4615,0,8.8274,8.8274,0,0,1-.4615-3.2308"></path><path d="M262.6805,58.9846V49.5692h1.2l3.9692,5.2616,1.6615,2.2154h0v-7.477h1.2v9.5077h-1.2l-3.9692-5.2615L263.8805,51.6h0v7.4769h-1.2"></path><path d="M273.7574,49.5692h2.5846a6.3219,6.3219,0,0,1,3.3231.7385,4.7863,4.7863,0,0,1,.2769,7.7538,6.3831,6.3831,0,0,1-3.8769.9231h-2.3077V49.5692m2.4923,8.3077a5.6981,5.6981,0,0,0,2.8616-.6461,3.6268,3.6268,0,0,0,.0923-5.9077,5.0459,5.0459,0,0,0-2.8616-.6462h-1.2v7.2Z"></path><path d="M20.1882,18a5.677,5.677,0,0,1-.0923-1.2923V14.8615c0-5.1692,1.2-8.9538,3.6923-11.3538C26.1882,1.2,30.1574,0,35.5113,0c5.8153,0,9.7846,1.2,12,3.6s3.323,7.1077,3.323,14.1231a19.7689,19.7689,0,0,1-.6461,6.1846,4.6468,4.6468,0,0,1-2.3077,2.7692,4.9985,4.9985,0,0,1,2.6769,2.9539c.5539,1.3846.7385,3.8769.7385,7.4769v6.8308c0,5.2615-1.3846,9.2307-4.0616,11.9077-2.6769,2.7692-6.6461,4.0615-11.8153,4.0615-5.5385,0-9.5077-1.2923-12.0924-3.9692C20.742,53.3539,19.542,49.2,19.542,43.4769v-7.2h13.2v7.1077c0,2.4.1846,3.9692.5539,4.5231a2.4119,2.4119,0,0,0,2.123.8308,2.412,2.412,0,0,0,2.1231-.8308c.3693-.5539.5539-2.1231.5539-4.5231V39.4154c0-3.1385-.4616-5.1692-1.477-6.0923-.923-.9231-3.2307-1.3846-6.7384-1.3846H27.5728V21.9692c4.8-.0923,7.6615-.4615,8.6769-1.1077s1.5693-2.2153,1.5693-4.523c0-2.2154-.1847-3.6923-.5539-4.2462a2.015,2.015,0,0,0-1.9385-.9231,2.015,2.015,0,0,0-1.9384.9231,8.9247,8.9247,0,0,0-.5539,3.8769v2.1231H20.1882" fill="#030404"></path><path d="M84.5266,17.3538v25.2c0,5.8154-1.2923,10.1539-3.9692,13.0154Q76.542,60,68.65,60c-5.3538,0-9.3231-1.4769-12-4.3385s-3.9692-7.2-3.9692-13.0153V17.3538c0-5.8153,1.2923-10.1538,3.9692-13.0153C59.3266,1.3846,63.2959,0,68.65,0c5.2616,0,9.2308,1.4769,11.9077,4.3385,2.6769,2.9538,3.9692,7.2923,3.9692,13.0153m-18.6461-.7384V43.3846c0,2.4.1846,3.9692.5538,4.5231a2.3117,2.3117,0,0,0,2.2154.9231,2.24,2.24,0,0,0,2.1231-.9231,10.6093,10.6093,0,0,0,.6462-4.5231V16.6154c0-2.4-.1847-3.9692-.5539-4.6154a2.3114,2.3114,0,0,0-2.2154-.9231A2.51,2.51,0,0,0,66.4343,12,12.024,12.024,0,0,0,65.8805,16.6154Z" fill="#030404"></path><path d="M14.2805,37.0154c-2.3077.9231-7.2923,2.2154-11.7231,4.1538a1.2934,1.2934,0,0,1,.6462.9231,1.4069,1.4069,0,0,0,1.6615,1.2c1.7539-.4615,9.4154-2.8615,9.6923-3.6a5.0062,5.0062,0,0,0-.2769-2.6769" fill="#fff"></path><path d="M121.6343,51.5077a3.1693,3.1693,0,0,0-2.0307-1.2c-1.2923-.1846-1.7539.3692-3.2308,0-1.0154-.2769-4.3385-.2769-7.2-1.6615,2.4923.1846,2.7692-.0924,4.4308.3692,1.7538-.5539,3.4153.2769,4.2461-.3692,1.2923-1.0154,1.2923-1.477.2769-2.0308a22.3407,22.3407,0,0,0-2.123-1.1077c-1.6616-.5539-3.0462,0-6-.6462a39.8108,39.8108,0,0,0-7.2923-.8307c-1.2-.277-4.4308-1.2923-6.3693-1.0154a5.1036,5.1036,0,0,0-.0923-2.4,6.3683,6.3683,0,0,0,1.0154-4.0616c-.1846-1.2923,1.6615-1.2923,2.1231-1.2923.2769,1.2,3.3231,1.477,5.8154,2.1231,1.8461.6462,3.4154,1.0154,3.8769-.2769,0,0,1.6615,0,2.3077-2.3077.2769-.8308-1.2-1.9385-1.3846-2.7692-.3693-1.2923.0923-2.4923-.277-3.1385-1.0153-1.4769-2.2153-1.7538-4.9846-2.9538a20.3323,20.3323,0,0,0-7.5692-1.477,33.2723,33.2723,0,0,0-7.8462.277c-.923.0923-2.5846.1846-5.5384.4615-4.5231.4615-5.7231,3.5077-8.4923,4.7077-3.0462,1.2923-3.8769,1.3846-9.3231,1.2-5.3538-.0923-7.9385.7384-11.6308-.1846-1.1077-.277-3.0461-1.0154-4.3384-1.2-3.0462-.3693-4.7077-1.3846-7.0154-2.2154a15.9325,15.9325,0,0,0-6.1846-1.2923c-7.1077,0-8.3077,4.2461-22.6154,10.5231-.5539.2769-1.6616.923-.9231,1.3846.1846.0923-.9231,1.3846.2769,1.6615a36.0755,36.0755,0,0,0-8.6769,3.1385C2.65,43.2923,2.9266,43.9385,3.2036,44.4c.7384,1.2,2.7692,1.3846,4.9846,1.1077a24.1789,24.1789,0,0,0,3.6923-1.0154c2.4-.6461,3.7846-.6461,3.8769,0-3.6,1.3846-5.1692,2.8615-9.7846,4.0615-1.2923.3693-1.1077,1.5693-1.5692,2.1231-1.477,1.7539-2.677,3.7846-1.2923,3.9693.923.0923.923-.9231,4.9846-2.677,1.6615-.7384,3.3231-1.1077,6.6461-2.2154,6.4616-2.0307,16.2462-.4615,20.2154-1.0153,4.0616-.4616,5.0769-4.8,13.8462-6.0923C67.542,48.0923,86.65,46.0615,86.65,46.0615s-.4615,2.1231.7385,2.5847a7.04,7.04,0,0,0,3.4154-.1847,1.4805,1.4805,0,0,0,.8307,1.2923c.6462.277,2.8616.0924,3.7847.3693,4.7076,1.7538,8.8615.5538,13.1076,1.7538,1.5693.4616,2.677,2.1231,4.8924.6462,3.8769,2.7692,9.5076.3692,8.2153-1.0154M32.0959,33.9692a18.6632,18.6632,0,0,0-1.7539,5.2616,14.3741,14.3741,0,0,1-3.9692,1.2,18.15,18.15,0,0,1-4.5231-.3693c0-1.0153-.1846-1.2-.1846-1.2A32.2958,32.2958,0,0,0,31.1728,33.6C31.542,33.4154,32.1882,33.7846,32.0959,33.9692Z" fill="#fdc364"></path><path d="M86.65,39.5077c-.7384-.7385-2.4923.2769-2.9538,2.1231a1.1325,1.1325,0,0,0-1.5692,1.0154,2.2615,2.2615,0,0,1-1.477-.7385s-.7384,2.0308-2.2154,2.0308c-.5538-.7385-1.3846-.8308-1.7538-.4616-.3692.2769-.9231.7385-1.4769.2769a5.1,5.1,0,0,1-4.5231,1.3847c-.4615.3692-1.5692.4615-3.6-.0923a1.13,1.13,0,0,0-1.4769.6461c-.277-.5538-2.4923-.8308-5.3539-2.2154a1.4662,1.4662,0,0,0-1.7538.2769,15.9642,15.9642,0,0,0-9.1385-1.0153c-.1846,0-.1846.4615.3692.4615,1.5693,0,2.1231.9231,3.1385.5538.5539.8308,4.0616.4616,4.8,1.8462,1.0154-.4615,2.7692,1.7538,4.0615,1.7538a12.2845,12.2845,0,0,1,4.0616.7385,7.1742,7.1742,0,0,0,5.3538.0923c1.7539.9231,4.3385-1.2,6,0a21.5645,21.5645,0,0,0,3.9693-1.0154c.923-.1846,3.0461.0923,3.8769-.6461a.7039.7039,0,0,0,1.2-.1846s.6461.3692.7385-.277c.6461-2.4.3692-3.8769-.277-6.5538" fill="#ffe3b5"></path><path d="M109.2651,37.2923c-.2769.9231-1.2923,1.2923-4.5231.0923-2.4923-.4615-4.8-.8308-5.1692-1.9384-.4615-1.477,1.9385-4.0616,3.0462-2.4.6461.8307,2.3077,0,2.3077,1.6615,2.3076-.3692,4.3384,2.5846,4.3384,2.5846" fill="#ffe0b5"></path><path d="M102.4343,26.7692c.0923.277-.3692.8308-.6461.7385a1.2513,1.2513,0,0,1-.7385,1.6615c-.9231.0923-2.4-1.5692-2.0307-2.9538.2769-1.2,2.9538-.8308,3.4153.5538" fill="#ffe0b5"></path><path d="M10.8651,46.9846c-1.0154.4616-3.2308,1.2-4.7077,1.6616-.2769.0923-.1846.2769.0923.2769a29.237,29.237,0,0,0,4.6154-1.5693c.2769-.2769.0923-.4615,0-.3692"></path><path d="M15.5728,37.2923c.2769,0,.3692-.1846.2769-.2769-.1846-.0923.2769-.9231-.4615-.5539-.4616.277-.2769.7385.1846.8308"></path><path d="M12.4343,39.8769a1.0618,1.0618,0,0,0-.6461-1.2c0-.4615-.3692-1.1077-.7385-.5538-.2769.4615-.5538.9231-.0923,1.4769-.3692.2769-.4615,1.1077,0,1.2a1.4988,1.4988,0,0,0,1.4769-.9231"></path><path d="M17.9728,36.2769a.436.436,0,0,0,.4615-.4615c0-.4616-.1846-.5539-.3692-.5539-.3692,0-.8308.3693-.8308.5539,0,.0923.4616.3692.7385.4615"></path><path d="M19.0805,35.9077a1,1,0,0,0,0,1.0154c.5538.4615-.0923.9231.5538,1.1077.1847.0923.5539.0923.8308-.5539a.9164.9164,0,0,0-.2769-1.2c0-.3692-.4616-.6461-.6462-.7384-.3692-.1847-.7384.0923-.4615.3692"></path><path d="M20.0959,34.5231c-.3693.4615.0923.6461.3692.8307.5539.3693,1.1077-.3692.6462-.6461.2769-.1846.1846-.5538-.0923-.7385.1846-.0923,0-.2769-.1847-.1846a4.8846,4.8846,0,0,0-.923.5539c0,.0923,0,.2769.1846.1846"></path><path d="M22.4036,34.7077c-.0923.1846-.1846.8308,0,.9231a.5717.5717,0,0,0,.7384-.0923c1.0154.1846.9231-1.477.4616-1.5693,0-.3692-.5539-.4615-.8308-.3692-.4615.0923-.3692.4615-.6462.8308q0,.4154.277.2769"></path><path d="M29.6036,33.0462c-.0923-.3693-.7385-.3693-1.0154-.277s-.5539.5539-.0923.7385c-.1846.5538.6461,1.3846,1.0154.9231a1.3035,1.3035,0,0,0,.0923-.8308c.2769,0,.2769-.4615,0-.5538"></path><path d="M31.0805,32.7692c.0923.1846.3692.0923.4615,0,.0923-.1846.0923-.8307-.1846-.7384-.3692.0923-.3692.6461-.2769.7384"></path><path d="M23.9728,32.8615c-.2769.8308.6462.8308,1.0154.4616.2769-.2769.5538-1.2-.4616-1.2923a1.2885,1.2885,0,0,0-.8307.2769c-.1846.0923-.2769.5538.2769.5538"></path><path d="M25.819,33.3231a.6362.6362,0,0,0,.8307.5538c.0923.3693,1.1077-.0923.7385-.4615a.3381.3381,0,0,0-.3692-.3692c.3692-.277.1846-.6462-.0924-.6462a1.3923,1.3923,0,0,0-1.2923.8308c-.0923,0,.0923.0923.1847.0923"></path><path d="M27.2959,31.1077c-.0923-.0923-.1846-.1846-.2769-.1846.1846-.4616-.5539-.4616-.7385,0-.0923.2769,0,.8307.1846.9231.3692.1846,1.1077-.277.8308-.7385"></path><path d="M31.9113,30.1846c-.0923.1846-.1847.6462.0923.5539-.3693.4615.4615.7384.8307.3692a.479.479,0,0,0-.3692-.8308.2939.2939,0,0,0-.5538-.0923"></path><path d="M21.4805,37.1077h.0923s-.2769.3692-.1846.5538a.5221.5221,0,0,0,.8308.3693c-.4616.3692.2769.7384.8307.3692.3693-.2769.1846-.9231-.5538-.9231a.3751.3751,0,0,0-.3693-.5538c.1847-.2769-.1846-.5539-.8307-.1846-.0923.1846,0,.3692.1846.3692"></path><path d="M28.219,29.9077c-.3693.6461-.0924.9231.2769,1.0154-.5539.8307,1.1077,1.3846,1.5692.6461.3692-.6461-.0923-.923-.6461-1.1077a.6146.6146,0,0,0-.7385-.6461c.1846-.2769-.0923-.4616-.5539-.3692-.0923.1846-.1846.4615.0924.4615"></path><path d="M30.7113,30.3692c.3692,0,1.0153-.4615.4615-.7384.1846-.0923.0923-.4616-.4615-.5539.2769-.1846.1846-.4615-.3693-.4615-.1846,0-.2769.1846-.0923.1846h.0923a.4989.4989,0,0,0-.1846.7385c-.2769.4615-.0923.8307.5539.8307"></path><path d="M31.45,28.3385c-.1846.4615.1846.5538.2769.5538a.2725.2725,0,0,0,.3693.1846.53.53,0,0,0,.1846-.6461c0-.4616-.2769-1.0154-.7385-.8308-.5538.1846-.3692.6462-.0923.7385"></path><path d="M33.4805,28.4308c-.1846.4615.1846.8307.6461.5538.4616-.3692.6462-1.1077,0-1.2923.277-.2769.0924-.9231-.5538-.6461-.0923,0-.0923.1846-.0923.2769-.4615.2769-.3692,1.1077,0,1.1077"></path><path d="M35.2343,27.1385c.4616.2769,1.2-.0923.6462-.5539-.4615-.2769-.9231-.0923-.9231.5539,0,.1846.2769.0923.2769,0"></path><path d="M35.6959,27.8769c-.0923.3693.6461.4616.9231.3693a.5668.5668,0,0,0,.0923-.5539.7513.7513,0,0,0-1.0154.1846"></path><path d="M35.8805,29.3538c.1846-.1846-.1846-.6461-.5539-.6461-.1846,0-.2769.7385-.1846.8308.1846.1846.6462-.0923.7385-.1847"></path><path d="M37.45,28.1538c.1846.0924.4616-.0923.5539-.1846s.1846-.5538-.0923-.6461a.5543.5543,0,0,0,.3692-.9231c-.1846-.1846-.7385-.0923-.9231,0s-.3692.3692,0,.4615c-.1846.0923-.1846.3693.0923.3693-.4615.1846-.1846.8307,0,.923"></path><path d="M39.6651,28.3385a.658.658,0,0,0,.2769-.5539c.6462-.0923,1.477-.7384.8308-1.0154s-.8308.0923-.7385.5539c-.1846-.1846-.6461-.1846-.5538.0923-1.2923.2769-.3692,1.2.1846.9231"></path><path d="M41.419,28.6154c.3692.1846.923-.0923.7384-.3692a.1385.1385,0,0,0,0-.277.8625.8625,0,0,0-.8308,0,.39.39,0,0,0,.0924.6462"></path><path d="M43.7266,29.0769c.5539.4616,1.0154,0,.9231-.1846a.4108.4108,0,0,0-.5538-.1846c-.1846-.1846-.5539,0-.7385.1846-.0923.1846.1846.2769.3692.1846"></path><path d="M40.1266,28.9846c.0924.2769.6462.0923.7385-.0923s-.0923-.2769-.3692-.1846c-.0923-.2769-.4616-.0923-.5539.0923-.0923.0923,0,.2769.1846.1846h0"></path><path d="M42.25,30.2769c.4616,0,.2769-.7384-.1846-.8307s-.7385.3692-.5538.5538a1.3756,1.3756,0,0,0,.7384.2769"></path><path d="M39.3882,30c.6461.5538,1.3846-.1846.5538-.3692-.3692-.0923-.6461.2769-.5538.3692"></path><path d="M38.65,30.8308a.3214.3214,0,0,0-.4615-.0923c-.0923.0923-.1846.2769.0923.5538.0923.1846.4615-.1846.3692-.4615"></path><path d="M41.8805,31.0154a.627.627,0,0,0-.2769.9231c-.1846.3692,0,.5538.2769.4615a.6118.6118,0,0,0,.6461-.1846.76.76,0,0,0,.0924-1.1077,1.0939,1.0939,0,0,0-.7385-.0923"></path><path d="M43.819,30.2769c.1846.2769.5538.1846.8307.1846.0923,0,.1846-.1846.0923-.3692-.1846-.4615-.5538-.2769-.923-.3692-.5539,0-.7385.4615,0,.5538"></path><path d="M32.2805,32.6769c-.0923,0-.2769.0923-.1846.2769s.3692.0924.3692.0924A8.3255,8.3255,0,0,0,31.45,35.0769c-.0923.1846.2769.0923.3693,0a13.4345,13.4345,0,0,1,1.9384-3.0461c.0923-.0923-.0923-.277-.1846-.1846a4.269,4.269,0,0,0-.6462.6461c-.0923-.2769-.6461-.3692-.6461.1846"></path><path d="M34.1266,30c-.4615,0-.5538.6462-.4615.7385.1846.1846.5539-.1847.6462-.3693,0-.1846-.0923-.3692-.1847-.3692"></path><path d="M34.4036,32.1231c-.1846,0-.5539.2769-.4616.4615a.406.406,0,0,0,.4616.0923.5239.5239,0,0,0,.1846-.8307c-.0923,0-.2769.0923-.1846.2769"></path><path d="M36.1574,32.2154c0-.0923.1846-.2769,0-.3692.1846,0,.1846-.1847.0923-.277a.705.705,0,0,0-.4615-.1846c-.0923,0-.2769.1846-.0923.2769a.4911.4911,0,0,0-.3693.6462c0,.2769.4616.3692.8308-.0923"></path><path d="M37.1728,32.5846c-.2769.0923-.1846.3692.0923.4616-.0923.5538,1.6615.3692,1.1077-.5539-.3692-.7385-1.1077-.3692-1.3846-.1846-.0923.0923-.0923.2769.1846.2769"></path><path d="M43.819,31.8462c.0923,0,.4615-.3693.0923-.5539a.444.444,0,0,0-.5539.1846c-.2769.5539.3692.7385.4616.3693"></path><path d="M45.2959,31.5692c.0923.3693,1.0154.277,1.0154-.0923.0923-.0923,0-.1846,0-.2769-.5539-.2769-1.2,0-1.0154.3692"></path><path d="M47.05,30.5538c-.0923.0924-.2769.3693-.1846.4616a.4192.4192,0,0,0,.4615,0c.277-.1846.4616-.4616.277-.6462-.0923-.0923-.5539-.3692-.7385-.2769-.0923,0-.1846.1846-.0923.1846a.6892.6892,0,0,0,.2769.2769"></path><path d="M36.1574,30.0923c-.1846.0923-.3692.2769-.1846.3692,0,.4616.6462.277.8308.0923.3692-.3692-.0923-.5538-.6462-.4615"></path><path d="M48.9882,30.9231a.1731.1731,0,0,0,0,.2769.09.09,0,0,1,.0923.0923h0a.3223.3223,0,0,0-.0923.1846.3391.3391,0,0,0,.0923.2769c.1846.1847.4615,0,.5538-.1846s.0923-.4615-.0923-.5538c-.0923-.2769-.2769-.2769-.5538-.0923h0"></path><path d="M50.5574,31.5692c.1846.277.8308.0923.9231-.2769.0923,0,.1846-.0923.0923-.1846-.1846-.2769-.9231-.2769-.8308,0a.3371.3371,0,0,0-.1846.4615"></path><path d="M53.3266,31.6615c.1847,0,.1847-.1846,0-.2769-.2769-.0923-.923-.1846-.8307.3692,0,.7385.8307.277.8307-.0923"></path><path d="M55.2651,31.5692c.2769,0,.3692-.3692-.2769-.4615-.2769,0-.4616.0923-.3692.1846a.7186.7186,0,0,0,.6461.2769"></path><path d="M54.8036,32.4c.0923-.5538-1.2-.3692-1.0154.1846.1846.3692.9231.0923,1.0154-.1846"></path><path d="M55.542,33.4154c.1846.1846.6462.2769.8308,0,.3692,0,.1846-.6462-.4615-.6462-.277.0923-.6462.3693-.3693.6462"></path><path d="M57.2959,32.6769c.7384,0,.5538-.3692.2769-.3692a1.1579,1.1579,0,0,0-.8308.0923c0,.0923.277.2769.5539.2769"></path><path d="M48.1574,33.0462c.3692,0,.5539,0,.5539-.3693a.4344.4344,0,0,0,0-.6461.8109.8109,0,0,0-.6462-.0923c-.0923,0-.2769.2769,0,.3692a.3776.3776,0,0,0,.0923.7385"></path><path d="M51.4805,32.9538c.2769-.3692-.0923-.7384-.5539-.3692a.718.718,0,0,0-.1846.7385c.0923.0923.6462-.1846.7385-.3693"></path><path d="M39.3882,31.8462c.2769.7384,1.1077.7384,1.2923.1846a.3394.3394,0,0,0-.0923-.277c.0923-.2769,0-.7384-.3692-.7384-.5539-.3692-1.0154.1846-.8308.8308"></path><path d="M43.2651,33.6923c.1846,0,.1846-.2769.1846-.3692a.6134.6134,0,0,0-.3692-.4616c-.1846,0-.3692,0-.4615.277a.1769.1769,0,0,0-.277.0923.7884.7884,0,0,0,0,.6461c.1846.1846,1.0154.3693.9231-.1846"></path><path d="M44.4651,32.4c-.0923.1846-.3692.2769-.3692.5538,0,.1847,0,.4616.2769.5539.6462.0923.9231-.7385.8308-1.0154-.0923-.1846-.6462-.2769-.7385-.0923"></path><path d="M45.85,33.0462a.5865.5865,0,0,0,.8308.5538.7771.7771,0,0,0,.3692-.6462c0-.3692-.3692-.4615-.6461-.2769-.277-.1846-.5539.0923-.5539.3693"></path><path d="M50.0959,33.3231a.3871.3871,0,0,0-.2769-.5539c-.0924,0-.277.1846-.0924.277a.51.51,0,0,0-.1846.5538c.0923.2769.8308.3692.5539-.2769"></path><path d="M32.9266,33.6a1.3119,1.3119,0,0,0-.1846.5538c0,.0924.0923.0924.1846.0924a1.2294,1.2294,0,0,0,.4616-.277c.0923-.0923,0-.3692-.2769-.2769.0923-.1846-.0923-.2769-.1847-.0923"></path><path d="M34.0343,33.7846a1.3123,1.3123,0,0,0-.1846.5539c.0923.1846.3693.1846.5539,0,.4615-.4616-.1846-.9231-.3693-.5539"></path><path d="M35.3266,35.1692a.7918.7918,0,0,0,.6462-.5538.4483.4483,0,0,0-.2769-.5539c0-.4615-.9231-.0923-.5539.0923-.2769.3693,0,1.0154.1846,1.0154"></path><path d="M36.619,34.0615a.6338.6338,0,0,0,.2769.8308c.2769.1846.6461-.0923.6461-.4615-.0923-.2769-.3692-.6462-.7384-.3693h0c0-.0923-.1846-.0923-.1846,0"></path><path d="M37.9113,36.0923c.1846-.0923.1846-.5538,0-.5538-.1847-.0923-.4616.1846-.4616.2769,0,.2769.2769.4615.4616.2769"></path><path d="M40.219,35.5385a.6132.6132,0,0,0-.4616.3692c-.1846,0-.1846.5538.1846.4615a.2448.2448,0,0,0,.277.277A.542.542,0,0,0,40.6805,36c0-.3692-.2769-.5538-.4615-.4615"></path><path d="M38.9266,35.4462a.645.645,0,0,0,.5539-.7385c.1846-.4615-.1846-.7385-.5539-.7385-.1846,0-.4615.3693-.1846.4616-.7384.2769-.6461,1.1077.1846,1.0154"></path><path d="M40.8651,33.6c.0923-.1846-.1846-.2769-.3692-.2769-.2769,0-.8308.1846-.3693.4615,0,.2769.1847.5539.4616.4616a.408.408,0,0,0,.2769-.6462"></path><path d="M41.419,35.5385c.2769.0923.4615-.0923.5538-.3693a1.0111,1.0111,0,0,0,0-.7384c-.2769-.4616-.8308-.0923-.9231.2769,0,.0923-.0923.1846-.0923.2769a.5192.5192,0,0,0,.4616.5539"></path><path d="M44.0959,35.5385h0c.0923-.4616-.3693-.5539-.6462-.277h0c0-.0923-.0923-.1846-.1846-.0923-.3692.1846-.5538.9231-.0923.9231,0,.6462,1.4769.5539.9231-.5538"></path><path d="M42.8036,37.7538c.0923-.2769-.1846-.3692-.3693-.3692-.0923,0-.1846.1846-.1846.2769.0923.1847.4616.277.5539.0923"></path><path d="M41.7882,36.4615c-.1846.0923-.2769.1847-.2769.3693a.7848.7848,0,0,0,.2769.4615.4439.4439,0,0,0,.6461-.3692c.0923-.3693-.3692-.5539-.6461-.4616"></path><path d="M44.2805,37.9385a.5633.5633,0,0,0,.8308-.277.4772.4772,0,0,0-.8308-.4615c-.3692-.0923-.5539.5538-.2769.8308.0923.0923.2769.0923.2769-.0923"></path><path d="M46.219,30c.2769-.2769-.4616-.6462-.6462-.4615a.7.7,0,0,0-.1846.3692c.0923.1846.7384.2769.8308.0923"></path><path d="M45.019,35.3538c-.1847.4616.5538.7385.7384.3693a.3223.3223,0,0,1,.0923-.1846c.3693,0,.0923-.6462-.0923-.6462-.0923,0-.2769.1846-.1846.2769-.3692-.0923-.5538,0-.5538.1846"></path><path d="M51.3882,33.7846c-.1846,0-.5539.2769-.2769.8308-.0923.2769.0923.5538.1846.3692.0923,0,.4615-.7384.5538-.9231-.0923-.0923,0-.3692-.4615-.2769"></path><path d="M47.3266,36.3692c-.1846,0-.5538.0923-.6461.277h0a.4244.4244,0,0,0-.6462.3692c0,.2769.3693.3692.6462.1846.6461.0923,1.0154-.7385.6461-.8308"></path><path d="M50.0959,36.5538c.0923,0,.2769-.1846.4615-.2769.9231-.4615.1846-1.2-.2769-.6461a2.7635,2.7635,0,0,0-.3692.7384c-.0923.0923.0923.1846.1846.1846"></path><path d="M48.8036,35.7231c-.277.0923-1.0154.7384-.6462.9231s1.1077,0,1.2-.4616a.43.43,0,0,0-.5538-.4615"></path><path d="M44.1882,34.6154c.2769-.0923.2769-.3692.1846-.3692-.1846-.0924-.3692.0923-.3692.2769,0,.0923.0923.0923.1846.0923"></path><path d="M48.8036,37.5692c0-.1846-.4616-.2769-.5539.0923-.6461.0923-1.0154,1.1077-.5538,1.1077a1.7522,1.7522,0,0,0,1.1077-1.2"></path><path d="M46.9574,39.3231a.2447.2447,0,0,0,.2769.2769.6132.6132,0,0,0,.4616-.3692c.0923,0,.1846-.0923.0923-.1847-.1846-.0923-.7385,0-.8308.277"></path><path d="M51.85,38.0308c.2769,0,.5539-.3693.6462-.6462,0-.1846,0-.7384-.1846-.7384-.7385-.0924-.8308,1.3846-.4616,1.3846"></path><path d="M46.4959,38.4923c.1846-.1846.2769-.4615,0-.5538-.3693-.1847-.8308.1846-.7385.3692,0,.2769.3692.4615.7385.1846"></path><path d="M45.7574,39.4154c.0923-.1846,0-.3692-.0923-.3692-.1846-.277-1.0154,0-1.2.3692-.2769.3692.4615.4615.7385.4615a.9453.9453,0,0,0,.5538-.4615"></path><path d="M40.219,38.6769c.2769-.2769.3692-1.0154-.1847-1.0154a.7184.7184,0,0,0-.6461.277c-.5539-.1847-.7385.5538-.1846.7384,0,.3693.5538.5539,1.0154,0"></path><path d="M37.3574,37.2a1.5714,1.5714,0,0,0,.0923.6462c.0923.1846.2769.1846.4616.0923.2769-.1847.2769-.8308.2769-1.0154-.1846-.3693-.8308-.0923-.8308.2769"></path><path d="M35.7882,36.8308c.8308.2769.9231-.4616.8308-.7385-.1847-.0923-.5539-.3692-.7385-.0923-.7385,0-.4615.7385-.0923.8308"></path><path d="M41.9728,39.6923c.1846-.0923.2769-.2769.2769-.6461.3693-.3693.2769-.6462-.0923-.6462.0923-.2769-.4615-.1846-.6461,0a.4039.4039,0,0,0,0,.5538c-.0923.4616.0923.8308.4615.7385"></path><path d="M43.3574,39.3231a.705.705,0,0,0-.4615.1846,1.3718,1.3718,0,0,0-.0923.5538c.0923.1847.4615.1847.6461.0923.0923,0,.0923-.1846,0-.2769.1846-.1846.1846-.4615-.0923-.5538"></path><path d="M38.1882,39.2308a.4489.4489,0,0,0-.7385.2769c0,.1846.0923.2769.2769.3692s.3693.1846.4616.0923c.2769-.1846.2769-.6461,0-.7384"></path><path d="M40.5882,40.0615c-.3692-.2769-1.2923-.2769-1.0154.1847-.2769.2769.1846.6461.3692.5538.4616-.0923.9231-.5538.6462-.7385"></path><path d="M35.9728,38.5846c.5538.1846.6462-.7384.1846-.8308a1.1352,1.1352,0,0,0-.4615.1847c.0923.1846.0923.5538.2769.6461"></path><path d="M41.9728,40.5231c-.3692-.0923-.6462.3692-.8308.6461-.1846.4616.277,1.1077,1.0154.4616a.2808.2808,0,0,0,.3692-.277.7712.7712,0,0,0-.5538-.8307"></path><path d="M33.7574,36.3692c-.1846.6462.2769.6462.5539.5539.1846-.0923.3692-.7385-.0923-.6462,0-1.0154-1.2.0923-.4616.0923"></path><path d="M32.5574,39.1385c.3692.0923.7385-.1847.6462-.4616a.6332.6332,0,0,0-.4616-.5538c.1846-.3693-.4615-.2769-.5538-.1846a.1769.1769,0,0,0,.0923.2769c-.0923.4615-.0923.8308.2769.9231"></path><path d="M35.05,38.1231a.4134.4134,0,0,0-.7384-.1846c-.3693.4615-.277,1.2923.1846,1.1077a1.1512,1.1512,0,0,0,.5538-.9231"></path><path d="M36.7113,40.4308a.55.55,0,0,0-.8308-.6462.6966.6966,0,0,0-.3692,1.2c.3692.2769,1.1077-.0923,1.2-.5538"></path><path d="M43.542,41.2615c-.5538.0923-.6461.3693-.3692.5539-.1846.5538.1846.5538.9231.4615,1.0154-.1846,1.0154-1.2923-.5539-1.0154"></path><path d="M39.1113,41.1692c-1.3847-.5538-1.5693.277-1.2.3693a.6577.6577,0,0,0-.277.5538c0,.5539,1.7539,0,1.477-.5538.1846,0,.0923-.277,0-.3693"></path><path d="M40.4959,41.4462c0-.1847-.3693-.1847-.5539.0923-.0923.0923,0,.1846.0923.2769.1847.0923.5539-.0923.4616-.3692"></path><path d="M41.6959,44.0308c.2769,0,.1846-.4616-.0923-.4616-.4616,0-.9231.3693-.9231.5539-.0923.1846,0,.3692.1846.3692.1846.0923.6462-.0923.8308-.4615"></path><path d="M40.9574,43.1077a.3862.3862,0,0,0,0-.6462,2.4876,2.4876,0,0,0-1.5692.277c-.3692.6461.9231.7384,1.5692.3692"></path><path d="M41.5113,44.9538c-.0923,0-.1847.0924-.277.1847-.2769-.0923-.5538.3692-.3692.5538s.5539,0,.6462-.0923a.6133.6133,0,0,0,.3692-.4615.2213.2213,0,0,0-.3692-.1847"></path><path d="M42.9882,43.3846H42.619a.1768.1768,0,0,0-.0924.2769.59.59,0,0,0,1.0154-.1846.6122.6122,0,0,0,.6462-.1846c0-.6461-1.0154-.6461-1.2.0923"></path><path d="M44.8343,42.8308c.0923.0923.1847,0,.277,0s.1846.0923.2769,0c.1846,0,.3692-.4616-.1846-.4616-.3693.0923-.5539.3693-.3693.4616"></path><path d="M37.819,44.2154c.5538-.0923.923-.7385-.0924-.8308-.2769,0-1.0153.0923-1.2.4616-.2769.7384.7385.4615,1.2924.3692"></path><path d="M38.3728,45.3231c.5538-.3693-.7385-.5539-.9231-.5539a.65.65,0,0,0-.4615.3693c.0923.4615,1.2.5538,1.3846.1846"></path><path d="M38.9266,46.1538c.3693.1847.7385-.3692.0924-.3692-.1847-.5538-1.3847.2769-1.1077.7385.1846.1846.7384,0,1.0153-.3693"></path><path d="M39.5728,46.3385c-.2769.1846-.6462.5538-.5538.6461.1846.1846.8307-.2769,1.0153-.5538.0923-.0923.1847-.3693-.4615-.0923"></path><path d="M36.0651,42.9231a.8789.8789,0,0,0,.1846-.6462.7309.7309,0,0,0-.7384-.4615c-.3693.0923-.7385.3692-.5539.6461s.8308.8308,1.1077.4616"></path><path d="M52.9574,33.4154c-.4615-.0923-.4615.2769-.2769.4615.0923.0923.6461.2769.6461-.2769.1847,0,.277-.1846.1847-.1846-.0923-.2769-.5539-.1846-.5539,0"></path><path d="M52.3113,35.3538c0,.0924-.0923.5539.3692.5539.0923,0,.2769-.0923.2769-.3692.1846-.0923.4616-.1847.4616-.3693.0923-.2769-.1847-.2769-.3693-.2769-.4615,0-.7384.0923-.7384.4615"></path><path d="M54.8959,35.1692c.5538.3693,1.2923-.4615.8307-.8307-.5538-.277-1.2-.0923-1.0153.3692-.6462.1846,0,.7385.1846.4615"></path><path d="M59.9728,33.9692c0-.1846-.7385-.7384-1.0154-.2769-.4615.8308.9231.7385,1.0154.2769"></path><path d="M57.2036,34.8923c.1846,0,.8307,0,.923-.1846s-.0923-.4615-.1846-.5539c-.2769-.1846-1.0154,0-.8307.1847-.1847.0923-.1847.5538.0923.5538"></path><path d="M58.3113,36c.2769,0,.5538,0,.5538-.2769,0-.1846-.4615-.1846-.6462-.0923-.0923.0923-.0923.3692.0924.3692"></path><path d="M59.6959,31.7538h0c.0923,0,.2769-.1846.0923-.2769-.4616-.0923-1.5693-.1846-1.6616,0-.1846.4616,1.1077.2769,1.5693.2769"></path><path d="M58.7728,32.2154c-.1846.0923-.0923.2769,0,.3692a2.1722,2.1722,0,0,0,.7385.1846c.5538,0,.4615-.6461-.0923-.5538a.7808.7808,0,0,0-.6462,0"></path><path d="M56.0036,31.5692c0,.1846.3692.277.6461.0923.3693.1847.4616-.0923.3693-.1846s-.3693-.0923-.4616-.0923c-.2769,0-.5538-.0923-.5538.1846"></path><path d="M33.7574,40.6154a.5549.5549,0,0,0,.0923.3692c.1846.4616.5539.4616.4616-.2769.2769-.5539-.4616-.4615-.5539-.0923"></path><path d="M32.5574,40.9846c.3692-.0923.5539-1.0154-.1846-1.0154-.2769,0-.5538.277-.6462.8308-.0923.6462.0924,1.1077.3693,1.2.4615,0,1.1077-.4615.4615-1.0154"></path><path d="M32.742,43.1077c.0923.3692.7385.3692,1.1077.2769a.76.76,0,0,0,.3693-.8308,2.2061,2.2061,0,0,0-.8308-.2769c-.0923,0-.3692.3693-.1846.5539-.3693-.0923-.4616.0923-.4616.2769"></path><path d="M31.45,36.8308c-.4615.2769,0,.6461.3693.4615.2769-.0923.2769-.3692.2769-.5538-.1846-.277-.6462-.1847-.6462.0923"></path><path d="M24.0651,40.8923c.1846.2769.9231,0,1.0154-.0923.1846-.1846.1846-.4615-.2769-.2769a1.1788,1.1788,0,0,0-1.1077.1846c-.0923.1846.1846.3692.3692.1846"></path><path d="M34.9574,43.7538c-.4615-.1846-.8308.0924-.3692.6462.3692.2769,1.0154-.4615.3692-.6462"></path><path d="M34.4959,46.1538c.3692.1847.6461.0924.7384-.0923.0923-.2769-.1846-.5538-.5538-.7384-1.3846-.7385-1.2923.7384-.5539,1.0154,0,0,.277,0,.3693-.1847"></path><path d="M35.6959,47.1692c0,.1846.3692.0923.4615,0,.2769-.3692,0-.4615-.1846-.3692.0923-.1846-.5538-.0923-.5538.2769-.0924.0923.0923.1846.2769.0923"></path><path d="M32.5574,47.0769c.1846.2769.7385.7385.9231.4616.2769.1846.6461.1846.7385,0a.4114.4114,0,0,0-.277-.5539.8072.8072,0,0,0-.8307-.5538c-.4616.0923-.6462.3692-.5539.6461"></path><path d="M29.9728,46.2462c-.0923.0923-.0923.3692.0923.7384a2.19,2.19,0,0,0,1.1077.8308c.4615.0923.7385-.2769.4615-.7385a4.0326,4.0326,0,0,0-1.6615-.8307"></path><path d="M31.2651,45.2308c-.3692.0923-.2769.4615,0,.6461a.4068.4068,0,0,0,.5539-.5538.3057.3057,0,0,0-.5539-.0923"></path><path d="M29.142,45.3231c.3693-.0923.1846-.9231-.0923-1.1077-.3692-.2769-1.2.1846-.6461.5538.1846.3693.4615.6462.7384.5539"></path><path d="M24.9882,48.2769a2.3565,2.3565,0,0,0-.8308,0,.412.412,0,0,0-.3692.2769c-.1846.3693.7384.3693,1.2.277.2769,0,.1846-.4616,0-.5539"></path><path d="M21.019,45.7846a2.2043,2.2043,0,0,0,.8307.1846c.2769,0,.4616-.4615.3693-.5538-.0924-.1846-.6462-.1846-.9231-.1846-.1846,0-.4616.4615-.2769.5538"></path><path d="M22.9574,46.1538a2.8148,2.8148,0,0,0-1.4769.277c-.3692.1846.0923.7384.4615.6461a4.4942,4.4942,0,0,0,1.1077-.0923.483.483,0,0,0-.0923-.8308"></path><path d="M25.542,41.5385a.3978.3978,0,0,0,.4616.5538c.1846.1846.923.0923,1.2-.0923.4615-.2769.2769-.7385-.4616-.6462a.8435.8435,0,0,0-1.2.1847"></path><path d="M26.5574,43.7538c.3692.0924,1.2923.0924,1.3846-.5538.0923-.5538-1.1077-.4615-1.4769-.2769-.0923,0-.0923.4615.1846.3692-.2769.1846-.3692.4615-.0923.4615"></path><path d="M27.3882,44.9538a.7779.7779,0,0,0-1.2-.3692.524.524,0,0,0-.1846.7385c-.1846.5538.4615.6461.923.6461a.7467.7467,0,0,0,.4616-1.0154"></path><path d="M23.6036,42.9231c.1846.2769.6461.1846.6461-.2769,0-.3693-1.0154-.1847-.6461.2769"></path><path d="M22.8651,44.2154a.6858.6858,0,0,0,1.0154-.3692c.0923-.3693-.1846-.5539-.6462-.5539a.4348.4348,0,0,0-.5538.0923c-.3692.1846-.1846.6462.1846.8308"></path><path d="M22.6805,42.0923c.2769-.1846.0923-.5538-.2769-.4615a.3115.3115,0,0,0-.277.4615.581.581,0,0,0,.5539,0"></path><path d="M47.7882,41.4462a.3223.3223,0,0,0,.1846.0923.1985.1985,0,0,0,.1846-.1847c-.1846-.4615-1.0154-.3692-.7384,0a.7886.7886,0,0,0-.6462,0,.3046.3046,0,0,0,0,.4616c.0923.0923.2769-.0923.3692-.0923.1846.0923.5539.1846.6462-.2769"></path><path d="M50.9266,40.2462c.0924-.277-.5538-.4616-1.0153-.277-.0923,0-.0923.1846-.0923.1846h-.1847c-.1846,0-.1846.1847,0,.277.0923,0,.1847.0923.277.0923a.204.204,0,0,0,.2769-.2769c.2769.0923.7384.0923.7384,0"></path><path d="M51.4805,41.2615c.0923-.0923.1846-.1846.1846-.2769h.2769c.0923,0,.1846-.1846.0923-.1846a.8853.8853,0,0,0-.8307-.1846.1985.1985,0,0,0-.1846.1846h-.277c-.1846,0-.3692.2769-.1846.3692.1846.3693.6462.277.9231.0923"></path><path d="M47.6036,42.2769c-.4616,0-.277.8308.1846,1.0154.0923,0,.2769,0,.2769-.1846.4615.0923.2769-.7385-.4615-.8308"></path><path d="M48.7113,41.8154c-.0923.0923-.1847.3692-.0923.4615s.5538,0,.6461-.0923c.2769-.3692-.1846-.7384-.5538-.3692"></path><path d="M52.4036,39.5077c.0923,0,.3692-.0923.3692-.1846.5538.0923.4615-.5539.3692-.8308h0a.1982.1982,0,0,0-.3692.0923c-.2769,0-.5538.1846-.5538.2769-.0924.1847-.1847.7385.1846.6462"></path><path d="M54.25,36.8308c-.2769.0923-.6461.6461-.4615.8307a1.0781,1.0781,0,0,0,1.2923-.3692c.1846.1846.3692-.0923.2769-.1846a1.05,1.05,0,0,0-1.1077-.2769"></path><path d="M55.9113,36.4615a1.3717,1.3717,0,0,0,.8307-.1846c.1846-.1846.0923-.4615-.0923-.4615A.7665.7665,0,0,0,55.9113,36c-.0923,0-.277.3692,0,.4615"></path><path d="M56.0959,37.7538c-.6462.1847-1.0154.7385-.8308.8308s1.2.0923,1.3846-.1846a.4347.4347,0,0,0-.5538-.6462"></path><path d="M62.2805,31.5692c.0923-.3692-1.2-.1846-1.4769-.0923-.1846,0-.0923.2769,0,.2769.3692.0924,1.3846.0924,1.4769-.1846"></path><path d="M62.8343,32.9538a1.11,1.11,0,0,0,.7385-.1846c.1846.0923.3692-.0923.2769-.1846a.5707.5707,0,0,0-.6461-.1846c-.1846.0923-.0923.0923-.4616.0923s-.4615.4615.0923.4615"></path><path d="M65.8805,32.3077c-.1846-.0923-.2769,0-.2769.0923,0,.3692.5538.6462.6461.2769,1.4769.2769.0923-1.1077-.3692-.3692"></path><path d="M65.2343,33.5077c0-.4615-1.1077-.3692-1.2923-.0923-.3692.3692,1.2923.8308,1.2923.0923"></path><path d="M65.9728,34.0615c-.4615.277.4615,1.2.9231.6462a.3214.3214,0,0,0-.0923-.4615.996.996,0,0,0-.8308-.1847"></path><path d="M60.619,33.2308c.4615.2769,1.4769-.277,1.0153-.4616.277-.4615-.923-.3692-.923-.1846a1.3278,1.3278,0,0,0,.2769.1846c-.4616,0-.4616.3693-.3692.4616"></path><path d="M60.5266,35.0769c-.7384.0923-.5538.7385-.1846.8308.7385.0923,1.2.0923,1.3846-.3692.0924-.3693-.2769-.5539-1.2-.4616"></path><path d="M61.542,34.1538c.0923.277.9231.0924,1.1077,0,.0923-.0923,0-.3692-.1846-.4615-.2769-.0923-1.2-.0923-.9231.4615"></path><path d="M57.85,40.5231c-.2769-.0923-1.5692-.3693-1.3846.1846.0923.2769.5539.2769.7385.2769.923-.0923.923-.3692.6461-.4615"></path><path d="M58.1266,39.6923a1.2931,1.2931,0,0,0,1.0154,0,.48.48,0,0,0,0-.7385,2.0873,2.0873,0,0,0-1.2.1847c-.3692.2769-.0923.8307.1846.5538"></path><path d="M57.85,42c-.0923-.3692-.5538-.1846-.6461,0-.0923.2769.6461.4615.8307.2769.0923,0,.0923-.1846-.1846-.2769"></path><path d="M54.25,41.5385c.0923,0,.0923-.0923.0923-.1847s-.2769-.1846-.4615-.1846c-.5539,0-.7385.3693-.5539.3693.6462,0,.7385.0923.9231,0"></path><path d="M59.05,37.3846c.0923-1.0154-1.8461-.6461-1.5692-.1846-.5539.6462.6461.7385.8308.6462.2769-.0924.7384-.1847.7384-.4616"></path><path d="M63.0189,35.1692c0,.3693.8308.277,1.1077.0923.0923-.0923.277-.2769,0-.3692-.0923-.1846-1.0153-.0923-1.1077.2769"></path><path d="M63.2959,38.7692c-.277,0-.3693.4616-.1846.5539.2769.0923.5538.0923.6461-.1846s-.3692-.3693-.4615-.3693"></path><path d="M61.6343,39.8769c.4616.4616.7385.1846.7385,0,0-.3692-.8308-1.1077-1.2-.4615-.7385-.3692-1.0154,0-.9231.1846a1.0849,1.0849,0,0,0,1.3846.2769"></path><path d="M60.8036,41.5385c0-.3693-.9231-.5539-1.2923-.3693-.5539.0923-.4616.6462-.1847.5539.8308,0,1.477.4615,1.477-.1846"></path><path d="M64.1266,41.0769c-.923,0-1.2.2769-1.2.4616,0,.3692.4616.4615.9231.3692.8308-.0923,1.2-.7385.2769-.8308"></path><path d="M66.25,37.6615a1.5439,1.5439,0,0,0-1.1077.0923c-.3692.277-.4615.5539-.0923.7385a1.6651,1.6651,0,0,0,1.1077-.1846c.2769-.1846.3692-.5539.0923-.6462"></path><path d="M65.6036,36.5538c.1846.1847,1.2923,0,1.1077-.3692-.0923-.1846-.8308-.5538-1.0154-.0923-.3693,0-.2769.3692-.0923.4615"></path><path d="M68.0036,34.8923a1.3718,1.3718,0,0,0,.5538.0923c.4615-.1846.7385-.6461,0-.8308-.1846-.3692-1.0154.3693-.5538.7385"></path><path d="M67.819,39.0462c.1846-.3693-.277-.6462-.5539-.1847-.4615.0923-.1846.4616.0923.5539a2.0164,2.0164,0,0,0,.4616-.3692"></path><path d="M66.5266,39.9692c-.0923-.2769-.2769-.3692-.6461-.3692a1.4066,1.4066,0,0,0-.9231.5538c-.1846.1847.0923.6462.6462.277a.6467.6467,0,0,0,.923-.4616"></path><path d="M62.8343,42.7385a2.41,2.41,0,0,0-1.4769-.1847c-.1846,0-.2769.277.2769.4616.0923.1846.277.3692.4616.2769s.1846-.1846.1846-.2769c.4615.1846.6461-.1846.5538-.2769"></path><path d="M66.25,41.5385c-.1846.0923-.0923.3692.2769.2769.1847,0,.1847.1846.277.1846.1846.0923.3692,0,.4615-.2769s-.3692-.5539-1.0154-.1846"></path><path d="M69.2959,41.7231c-.7385-.2769-.6462.1846-.5539.4615a.7819.7819,0,0,0,.8308.2769.8238.8238,0,0,0,.9231,0c.4615-.3692.1846-.8307-1.2-.7384"></path><path d="M72.5266,44.0308c.3693-.1846.4616-.5539,0-.4616s-.5538.1846-.4615.3693c0,.1846.2769.1846.4615.0923"></path><path d="M71.419,45.0462c0-.4616-1.3847-.0924-1.477.2769,0,.2769.0923.6461.7385.1846.6461.1846.7385-.1846.7385-.4615"></path><path d="M69.2036,39.7846a.9334.9334,0,0,0-1.1077.2769c-.1846.1847-.2769.5539.0923.4616.7384.6461,1.2923-.5539,1.0154-.7385"></path><path d="M70.4959,40.0615c.4615.0923,1.3846-.1846.7384-.5538.0923-.4615-1.2923,0-.8307.2769-.0923,0,0,.1846.0923.2769"></path><path d="M73.819,40.3385c.2769-.277-.7385-.277-1.2-.0923a.4353.4353,0,0,0,.0923.8307c.2769,0,1.5692-.5538,1.1077-.7384"></path><path d="M66.619,43.4769c.4615-.0923.5538-.5538-.277-.6461-.9231-.0923-1.2.1846-.8307.3692a1.6649,1.6649,0,0,0,1.1077.2769"></path><path d="M73.819,37.7538c-.1847-.3692-1.3847,0-1.6616.277a.28.28,0,0,0,.2769.4615c.4616.7385,1.5693-.1846,1.3847-.7385"></path><path d="M75.4805,39.6a.7918.7918,0,0,0,.6461-.5538.436.436,0,0,0-.4615-.4616.6132.6132,0,0,0-.4615.3693c-.4616.2769-.277.7384.2769.6461"></path><path d="M72.342,35.9077a1.0733,1.0733,0,0,0-.923.1846c-.3693,0-.5539.4615,0,.6462a1.51,1.51,0,0,0,1.1076-.1847c.1847-.1846.277-.5538-.1846-.6461"></path><path d="M75.1113,35.9077c.1846-.1846.4615-.6462.2769-.8308-.1846-.2769-1.1077,0-1.2923.4616-.4616.7384.3692.923,1.0154.3692"></path><path d="M70.219,33.2308c.4615.2769.8307-.3693.6461-.4616-.4615-.1846-1.7538.3693-1.5692.7385s.9231,0,.9231-.2769"></path><path d="M71.5113,31.2923c-.0923.2769.923.3692.8307,0,0-.3692-.7384-.1846-.8307,0"></path><path d="M72.5266,32.2154c0-.3692-.5538-.0923-.7384.2769-.1846.2769.0923.3692.2769.2769a.3724.3724,0,1,0,.4615-.5538"></path><path d="M74.0959,31.7538c-.0923-.1846-.277-.3692-.4616-.2769a.09.09,0,0,0-.0923.0923c-.2769,0-.2769.277-.0923.277.0923,0,.1846.0923.2769.1846s.277,0,.1847-.1846c.0923.0923.2769,0,.1846-.0924"></path><path d="M74.1882,33.7846a.9343.9343,0,0,0,.6461-.3692c.277-.5539-1.0153-.8308-1.2-.2769-.6461.3692.277.6461.5539.6461"></path><path d="M72.619,34.6154h0a.2283.2283,0,0,0-.0924.3692.5718.5718,0,0,0,.7385-.0923c.0923-.1846.0923-.3692-.0923-.4615-.2769-.0923-.5538-.0923-.5538.1846"></path><path d="M76.3113,33.7846c.1846.1846.6461.0923.6461-.1846a.436.436,0,0,0-.4615-.4615c-.2769.1846-.3693.4615-.1846.6461"></path><path d="M75.7574,31.5692c-.1846.0923-.4615.1846-.5538.3693-.0923.2769.2769.4615.5538.3692-.0923.1846.2769.1846.3692,0,.5539-.6462.0924-.9231-.3692-.7385"></path><path d="M78.619,29.8154a.2283.2283,0,0,0,.3692-.0923.5668.5668,0,0,0,.0923-.5539c-.1846-.4615-1.0154-.0923-.4615.6462"></path><path d="M79.819,28.2462c.7384-.3693.0923-.7385-.6462-.5539a.1769.1769,0,0,0-.0923.2769c-.1846.3693.3692.4616.7385.277"></path><path d="M77.5113,30.8308a.2947.2947,0,0,0-.277.2769c0,.1846.0923.3692.4616.4615.4615.0923,1.0154-.0923.6461-.6461.1846,0,.277-.0923.1846-.1846-.4615-.4616-1.2-.1847-1.0153.0923"></path><path d="M78.5266,33.3231c.4616.5538.9231-.5539.3693-.7385-.7385-.3692-1.2,1.0154-.3693.7385"></path><path d="M77.6959,35.7231c.4615-.1846.8307-.7385.6461-1.0154s-.9231-.1846-1.2.0923c-.1846.1846-.2769.4615.0923.5538-.2769.3693.1847.4616.4616.3693"></path><path d="M79.3574,37.2923c.3692-.4615-.4615-.6461-.8308-.5538-.5538,0-.7384.6461-.4615.7384.7385.1846,1.0154.0923,1.2923-.1846"></path><path d="M76.3113,37.2923c.2769-.0923.3692-.5538.1846-.6461a.9364.9364,0,0,0-.9231.2769c-.1846.2769-.1846.4615,0,.6461a.4774.4774,0,0,0,.7385-.2769"></path><path d="M81.5728,28.5231c-.0923-.0923-.6461,0-.9231.0923-.3692.1846-.2769.7384.277.5538.4615.5539.8307-.3692.6461-.6461"></path><path d="M81.7574,32.9538c.2769,0,.7385-.4615.4616-.6461a.4194.4194,0,0,0-.4616,0,.1731.1731,0,0,0,0,.2769c-.2769.1846-.1846.3692,0,.3692"></path><path d="M80.3728,30.7385c-.8308.1846,0,1.4769.7385.7384,1.0153-.0923-.6462-1.4769-.7385-.7384"></path><path d="M83.2343,30.0923c0-.1846.0923-.7385-.2769-.7385-.4615,0-1.0154.6462-.9231,1.0154,0,.0923.277.1846.3693.0923a.7452.7452,0,0,0,.8307-.3692"></path><path d="M5.7882,52.1538c-.1846.277-.0923.5539-.1846.8308,0,.3692-.4616.5539-.4616.8308,0,.3692.6462-.0923.9231-.3692A5.3748,5.3748,0,0,1,7.0805,52.8c.1846-.0923.1846-.1846,0-.1846H6.619c-.0924-.0923.1846-.2769.2769-.3692s.2769-.3693.0923-.4616c-.0923-.2769-.9231,0-1.2.3692"></path><path d="M22.219,47.4462a3.5179,3.5179,0,0,0-1.3847.0923.4461.4461,0,0,0,0,.6461,4.4485,4.4485,0,0,0,1.1077,0,1.0526,1.0526,0,0,0,.5539-.2769c.0923-.1846-.0923-.3692-.2769-.4615"></path><path d="M24.25,46.0615c.2769.0923.3693-.1846.2769-.3692-.0923-.0923-.3692-.1846-.4615-.3692.0923-.2769-.3692-.3693-.7385-.1846-.3692.3692.0924.6461.9231.923"></path><path d="M29.7882,40.7077a.4348.4348,0,0,0,.5538-.0923c.0923-.1846.1846-.3692,0-.5539-.0923-.1846-.4615-.1846-.6461,0a.5687.5687,0,0,0,.0923.6462"></path><path d="M30.619,44.5846c.1846.0923.7384.1846.8307-.1846a2.3572,2.3572,0,0,0,.0923-1.1077c-.1846-.1846-1.2-.0923-1.2.2769-.1846.1846.0923.9231.277,1.0154"></path><path d="M30.25,42.5538c.2769-.0923.3693-.8307.0923-1.0153-.1846-.0923-1.1077-.277-1.0154.3692-.2769.0923-.1846.5538.1847.6461a1.01,1.01,0,0,0,.7384,0"></path><path d="M27.942,40.1538c.277.277,1.0154-.0923.8308-.2769-.0923-.1846-1.0154.0923-.8308.2769"></path><path d="M32.65,35.7231c.0923,0,.8308-.6462.5539-.8308-.6462-.3692-1.0154,1.0154-.5539.8308"></path><path d="M50.1882,37.2923a.7978.7978,0,0,0-.2769.5539c0,.1846.2769.1846.2769.0923.3692.0923.5538-.277.7384-.5539.0924-.0923.0924-.2769-.0923-.2769a.6118.6118,0,0,0-.6461.1846"></path><path d="M49.542,39.0462c-.2769.6461,1.2.2769,1.2923.0923a.503.503,0,0,0-.4615-.6462,1.13,1.13,0,0,0-.8308.5539"></path><path d="M18.25,47.6308c0-.1846-.5538-.1846-.4615.0923,0,.2769.3692.1846.4615-.0923"></path><path d="M16.7728,47.0769c-.3692-.1846-.8308.6462-.3692.6462s.8307-.4616.3692-.6462"></path><path d="M14.742,48.7385h.0923a.3393.3393,0,0,0,.277-.0923.3227.3227,0,0,0,.0923-.1847c0-.0923-.0923-.2769-.1846-.2769a.3651.3651,0,0,0-.277.5539"></path><path d="M6.8036,44.4923c.1846,0,.3692-.2769.0923-.2769-.4616-.0923-1.1077-.0923-1.4769-.5539-.277-.2769-.5539.0923-.3693.3693a2.1849,2.1849,0,0,0,1.7539.4615"></path><path d="M47.6959,40.1538c.0923-.0923-.0923-.1846-.1846-.1846a6.78,6.78,0,0,0-.5539.4616c.1846-.277.0923-.6462-.2769-.5539a.5928.5928,0,0,0-.4615.4616c-.3693-.0923-.4616.3692-.277.4615a.4679.4679,0,0,0,.4616-.0923h.1846a13.52,13.52,0,0,0-1.0154.9231c-.0923.0923.1846.1846.2769.0923a6.3533,6.3533,0,0,0,1.8462-1.5693"></path><path d="M55.6343,43.0154c.0923,0,.277-.2769.0923-.2769a14.3159,14.3159,0,0,0-1.9384-.3693s.1846-.4615-.1846-.4615c-.1846,0-.5539.0923-.6462.3692a11.4011,11.4011,0,0,0-3.9692.3693c-.0923,0-.0923.3692,0,.3692a13.827,13.827,0,0,1,2.0308-.1846c0,.4615.923.4615,1.2.3692.0923,0,.1846-.1846,0-.2769a.4561.4561,0,0,0-.277-.0923,16.7956,16.7956,0,0,1,3.6923.1846"></path><path d="M56.0036,41.5385c.0923,0,.2769-.0923.1846-.1847-1.0154-.6461-1.8462-1.1076-2.4923-1.4769-.0923-.0923-.2769.0923-.1846.1846.1846.1847.3692.277.5538.4616-.0923.0923-.0923.0923-.0923.1846a.5172.5172,0,0,0,.5538.0923,5.5219,5.5219,0,0,0,1.477.7385"></path><path d="M54.342,36.0923a.7884.7884,0,0,0-.6461,0c-.0923.0923,0,.4615.1846.3692.3692,0,.6461-.1846.4615-.3692"></path><path d="M54.8036,39.2308c-.277.0923-.3693.4615,0,.7384.1846.0923.4615,0,.3692-.2769a1.5084,1.5084,0,0,0,.6462,0,.3391.3391,0,0,0,.0923-.2769.9533.9533,0,0,0-1.1077-.1846"></path><path d="M57.7574,43.8462c.0923,0,.1846-.0924.2769-.0924-.0923.4616.1847.4616.3693.3693a1.8793,1.8793,0,0,0,.5538-.6462c.0923-.1846-.0923-.2769-.1846-.1846l-.3692.3692v-.1846c0-.0923-.1847-.0923-.277-.0923a1.2742,1.2742,0,0,0-.3692.2769c-.1846.0923-.0923.277,0,.1847"></path><path d="M61.9113,44.1231A3.7526,3.7526,0,0,0,60.0651,43.2c-.3692-.0923-.6461.2769-.7385.3692,0,.0923-.0923.1846.0923.1846.0924,0,.277-.0923.3693-.0923s0,.1847.0923.277.4615,0,.6461-.0923a4.5715,4.5715,0,0,0,1.2.3692c.1847.0923.277,0,.1847-.0923"></path><path d="M57.2959,43.2923c0-.3692-1.1077-.5538-1.1077-.2769s1.1077.5538,1.1077.2769"></path><path d="M67.9113,48.8308c0-.1846-.0923-.4616-.1847-.4616s-.2769.3693-.1846.4616c0,.0923.277.0923.3693,0"></path><path d="M64.4036,44.4a.7805.7805,0,0,0,.6461,0c.2769-.0923.3692-.2769.1846-.3692-.0923-.0923-.5538,0-.5538,0a.4561.4561,0,0,0-.0923-.277,2.51,2.51,0,0,0-.8308,0c-.0923,0,0,.277.0923.3693h.4616a.4557.4557,0,0,0,.0923.2769"></path><path d="M63.85,44.7692c-.1846-.1846-.5538-.0923-1.1077-.2769-.1846-.0923-.2769.2769-.0923.2769a3.8457,3.8457,0,0,1,.5539.1846c.1846.0924.3692.277.4615.277a.2589.2589,0,0,0,.1846-.4616"></path><path d="M67.6343,44.9538h-.5538a.7144.7144,0,0,0-.0923-.2769c-.1846-.4615-1.1077.0923-.9231.4616.0923.1846.3692,0,.5539.0923a.8311.8311,0,0,0,1.0153,0,.1385.1385,0,1,0,0-.277"></path><path d="M68.2805,45.7846c0-.1846-.3692-.0923-.4615,0-.1847.1846,0,.4616.1846.3692s.3692-.1846.2769-.3692"></path><path d="M18.8036,48.9231a32.7238,32.7238,0,0,0-5.8154,1.3846c-.1846.0923-.0923.2769.0923.2769,2.2154-.5538,3.6-1.1077,5.7231-1.4769.0923.0923.1846-.1846,0-.1846"></path><path d="M64.7728,46.6154c0-.0923.2769-.7385.0923-.7385s-.4615.4616-.5538.6462c0,.2769.4615.3692.4615.0923"></path><path d="M63.85,46.5231c-.0923.1846.0923.2769.2769.0923.0924-.1846.277-.3692.1847-.4616a.5571.5571,0,0,0-.4616.3693"></path><path d="M38.5574,47.2615c-.5538.3693-1.1077.6462-1.5692.9231h0a1.1188,1.1188,0,0,0-1.8462.0923.4194.4194,0,0,0,0,.4616h-.2769a.9772.9772,0,0,0-1.2.0923H32.3728c-.0923,0-.2769.1846-.0923.2769a7.7232,7.7232,0,0,0,6.5538-1.5692c0-.1847-.1846-.3693-.2769-.277"></path><path d="M74.5574,45.2308c.0923-.4616-.8308-.1846-1.0154.2769a.3391.3391,0,0,0,.0923.2769c.1846.0923.4616-.0923.5539-.1846-.0923.4615.4615.6462.7384,0,.1847-.2769.0923-.5538-.3692-.3692"></path><path d="M68.65,47.1692a.2283.2283,0,0,0-.3692-.0923.5551.5551,0,0,0-.0923.3693.1278.1278,0,0,0,.1846,0s-.0923.2769,0,.3692.1846.1846.2769,0c.0923-.0923.1846-.4616.277-.4616.0922-.2769,0-.3692-.277-.1846"></path><path d="M69.0189,47.6308V48c0,.2769.277.1846.3693,0,0-.0923-.0923-.3692-.0923-.4615-.0923-.0923-.277-.0923-.277.0923"></path><path d="M72.4343,46.7077c-.0923-.1846-.1846-.1846-.3692-.0923,0,0,.0923-.2769,0-.3692-.3692-.0924-.9231.5538-.1846.6461,0,.4615.3692.7385.7385.4615.1846-.0923.3692-.6461.3692-.7384s-.0923-.1846-.2769-.0923a.3415.3415,0,0,0-.277.1846"></path><path d="M70.219,48.3692c-.0924.1846,0,.4616.0923.4616.1846,0,.1846-.277.0923-.5539.0923-.0923-.0923,0-.1846.0923"></path><path d="M71.05,48.0923c-.0923,0-.2769.5539-.3692.9231,0,.0923.1846.1846.1846.0923s.1846-.3692.1846-.4615c.0923.2769.2769.2769.3692.0923.0924-.277-.0923-.6462-.3692-.6462"></path><path d="M76.1266,47.6308c-.2769-.1846-.4615.1846-.4615.1846s.0923-.4616.0923-.5539c0-.1846-.2769-.1846-.2769-.0923-.0923.1846-.1846.6462-.2769.9231,0,.0923.1846.0923.2769.0923S75.5728,48,75.5728,48s0,.2769.1846.2769.4615-.3692.6462-.6461c.1846,0-.0923-.1846-.277,0"></path><path d="M77.3266,47.6308a1.1772,1.1772,0,0,0-.4615.6461c0,.0923,0,.1846.0923.1846.1846.3693.6462.1847.6462-.5538q-.1384-.4153-.277-.2769"></path><path d="M78.8959,45.0462c-.0923-.1847-.3693-.0924-.5539,0-.1846-.277-.5538-.1847-.5538,0,0,.0923.0923.2769.0923.3692-.3692.1846-.0923.5538.0923.6461.2769,0,.2769-.1846.2769-.1846s.1846.2769.2769.2769c.277.0924.3693-.0923.277-.2769.1846-.1846.3692-.3692.0923-.8307"></path><path d="M79.1728,47.5385c-.1846,0,0,.7384.2769.6461.2769,0-.0923-.6461-.2769-.6461"></path><path d="M81.2959,46.4308c-.1846-.0923-.3693.5538-.277.7384-.0923-.1846-.2769-.2769-.3692-.3692-.2769-.0923-.4615.2769-.4615.2769a2.0176,2.0176,0,0,1-.2769-.4615.1769.1769,0,0,0-.277.0923c.0923,1.1077.5539,1.2923.7385.9231.2769.3692.5538.0923.7385-.1846a.2917.2917,0,0,0,.4615-.0924,1.378,1.378,0,0,0-.2769-.923"></path><path d="M86.65,45.1385c.0923-.4616-.5538-.4616-.7384,0-.6462-.3693-.9231.4615-1.477,1.2-.0923.1846.1847.1846.3693.0923a3.5132,3.5132,0,0,0,.5538-.4616.4252.4252,0,0,0,.6462-.1846c.3692.1846.5538-.3692.6461-.6461"></path><path d="M87.5728,47.9077a2.8723,2.8723,0,0,0-.5538.3692c-.1847.1846-.0923.4616.1846.3693A1.2989,1.2989,0,0,0,87.7574,48c.0923-.0923,0-.1846-.1846-.0923"></path><path d="M89.7882,48.5538c-.1846,0-1.1077.0924-1.1077-.1846.0923-.4615-.8308-.0923-.9231.6462,0,.2769.2769.1846.3692.0923a.2857.2857,0,0,0,.0924-.1846c.0923,0-.0924.4615,1.4769.0923.1846,0,.3692-.4616.0923-.4616"></path><path d="M86.4651,47.5385c-.0923.1846,0,.3692.1846.3692-.1846.3692.2769.3692.6462-.2769.0923-.1846.0923-.3693-.1846-.3693.1846-.3692.2769-.6461.1846-.7384-.0923,0-.3693.2769-.8308,1.0154"></path><path d="M76.0343,41.1692c-.0923-.0923-1.2923.1846-1.0153.5539.1846.2769.6461.0923.8307-.0923.0923,0,.3693-.3693.1846-.4616"></path><path d="M69.3882,43.7538c0-.3692-.5539-.1846-.7385,0a.1769.1769,0,0,0,.0923.277.93.93,0,0,0,.2769-.0923.3223.3223,0,0,1-.1846.0923c-.0923.0923-.0923.3692.1846.2769a2.1993,2.1993,0,0,0,1.0154-.5539c.1847-.0923,0-.3692-.6461,0"></path><path d="M73.6343,42.5538c0-.3692-1.2923-.3692-1.3846.0924-.0923.923,1.3846.4615,1.3846-.0924"></path><path d="M83.5113,46.5231c-.277-.0923-.5539.4615-.5539.5538-.0923.1846.2769.2769.3692,0a2.0912,2.0912,0,0,1,.0924.3693c.0923.1846.3692.0923.2769-.0924-.0923-.6461,0-.7384-.1846-.8307"></path><path d="M66.7113,48.5538c0-.0923-.0923-.3692-.0923-.4615-.0924-.1846-.1847-.0923-.277.0923s-.1846.5539,0,.5539c.0923,0,.3693,0,.3693-.1847"></path><path d="M84.0651,43.9385c-.1846-.0923-.3692.1846-.5538.1846,0-.0923,0-.1846-.0923-.1846-.1847,0-.277.0923-.277.1846,0-.0923-.1846-.4616-.1846-.5539-.0923-.0923-.2769,0-.2769.1846a4.0966,4.0966,0,0,0,.1846,1.2c.0923.1847.4615.0924.5538-.0923.5539.1847.8308-.8307.6462-.923"></path><path d="M77.05,43.1077c0-.6462-.9231.3692-.6461.5538,0,0,.0923.0923.4615-.1846.5539,1.2923,1.2923-.0923.9231-.4615a.5588.5588,0,0,0-.7385.0923"></path><path d="M81.0189,41.1692c-.1846-.1846-.2769,0-.3692.1846a2.6264,2.6264,0,0,0,0,1.2c.0923.1847.4616.1847.5539-.1846,0,0,.1846.5539.5538.4616.2769-.0923.0923-1.477-.5538-1.2923-.0923,0-.1847-.277-.1847-.3693"></path><path d="M81.2036,38.4923c.1846,0,.4615-.7385-.6462-.3692-.4615.1846-.4615.5538-.0923.5538-.1846.3693.8308.2769,1.0154.2769.3692-.0923.2769-.4615-.2769-.4615"></path><path d="M82.8651,37.3846a1.2687,1.2687,0,0,0,.7385-.8308c0-.2769-.4616-.0923-.6462,0,.0923-.1846,0-.4615-.2769-.2769-.0923,0-.1846.1846-.2769.2769a.1769.1769,0,0,0,.0923.277h.0923c-.0923.2769.0923.5538.2769.5538"></path><path d="M78.619,41.5385s.2769-.1847,0-.277c-.1847-.0923-.5539,0-.7385,0-.1846.0923-.2769.277.0923.3693-.0923.0923-.2769.1846-.0923.2769A4.4946,4.4946,0,0,0,78.9882,42c.2769-.0923.1846-.3692-.3692-.4615"></path><path d="M78.9882,39.0462c-.4616-.0924-1.5692.0923-1.4769.7384.0923.5539,1.6615.2769,1.4769-.4615.1846-.0923.1846-.2769,0-.2769"></path><path d="M85.45,35.6308a.9812.9812,0,0,0-.0923-1.1077.4439.4439,0,0,0-.6461.3692c0,.0923.2769.1846.2769.1846-.0923.4616.2769.7385.4615.5539"></path><path d="M82.219,40.4308s.2769.1846.4615,0c.0923-.0923.0923-.3693.0923-.3693s.2769.1847.4615.277c.0923.0923.277.0923.277-.1847s-.5539-.7384-.7385-.7384a.4858.4858,0,0,0-.5538.5538c-.3693-.2769-.4616.2769-.4616.5539,0,.1846.2769.0923.3692,0a.09.09,0,0,0,.0924-.0923"></path><path d="M86.65,43.0154c-.0923-.0923-.2769,0-.2769.2769a.1769.1769,0,0,0-.2769.0923c0,.1846.1846.4616.4615.2769.0923-.0923.1846-.5538.0923-.6461"></path><path d="M87.0189,37.1077c.1847-.1846,0-.6462-.0923-.8308-.2769-.3692-.923-.1846-1.2.1846-.0923.0923.1847.4616.3693.277a.2213.2213,0,0,0,.3692.1846s.3692.3692.5538.1846"></path><path d="M85.0805,42.0923a1.23,1.23,0,0,1,.4615-.2769c.0923-.0923.1846-.1846,0-.2769a2.8055,2.8055,0,0,1-.6461-.4616c-.1846-.0923-.3693.0923-.1846.1846.0923.0923.4615.3693.4615.3693s-.2769.1846-.2769.2769c-.2769.1846,0,.2769.1846.1846"></path><path d="M85.7266,42.2769c.3693-.0923.277-.3692,0-.3692a.2947.2947,0,0,0-.2769.2769c0,.1846.1846.2769.2769.0923"></path><path d="M84.25,38.7692c.0923.277.2769.4616.5539.1846l.1846.1847c.1846.0923.4615-.0923.3692-.277a.4246.4246,0,0,0-.6461-.2769h0L84.5266,38.4l.0924-.1846c.0923-.0923-.0924-.2769-.1847-.1846-.0923.1846-.5538.5538-.5538.6461-.0923.0923.1846.2769.3692.0923"></path><path d="M83.8805,34.5231h0c.0923-.0923.3692-.7385,0-.7385,0-.5538-.5539-.2769-.9231-.0923-.0923.0923-.0923.1846.0923.1846h.1846c-.0923.0923-.1846.3693-.0923.4616.0923.1846.277.1846.4616.0923v.1846c-.0923,0,.0923.0923.2769-.0923"></path><path d="M81.4805,35.8154c0-.0923-.0923-.3692-.2769-.3692-.277,0-.8308.2769-.6462.5538.1846.3692.8308.0923.9231-.1846"></path><path d="M80.0036,34.3385c-.277.5538,1.0153.3692.8307-.0923,1.0154-1.2924-1.7538-.6462-.8307.0923"></path><path d="M81.7574,26.0308c0,.2769.3692.2769.6462.0923-.0923.3692.5538.4615.7384.3692.277-.1846,0-.6461-.4615-.6461a.1769.1769,0,0,0-.0923-.277c-.0923-.0923-.5539,0-.9231.277,0,.0923,0,.2769.0923.1846"></path><path d="M84.25,28.3385c-.1846.1846.0923.3692.2769.2769a1.0768,1.0768,0,0,0,.5539-.5539c.1846-.5538-.6462-.3692-.9231-.2769-.3692.0923-.3692.6462.0923.5539"></path><path d="M83.6036,32.3077c.2769,0,.6461-.5539.5538-.8308,0-.2769-.3692-.2769-.5538-.0923-.0923-.1846-.277-.0923-.3693,0-.0923.1846,0,.5539.1846.2769-.0923.3693,0,.6462.1847.6462"></path><path d="M83.3266,25.5692h.4616c-.0923.0923-.0923.277.1846.277-.2769.1846.0923.4615.5538.2769.277-.0923.1847-.3693,0-.3693-.0923-.0923-.2769,0-.2769,0,.0923-.0923.0923-.5538-.9231-.3692-.1846,0-.1846.1846,0,.1846"></path><path d="M81.3882,27.3231c.3692.0923.3692-.1846.3692-.3693a.4938.4938,0,0,0-.9231-.2769c-.1846-.4615-.6461.2769-.3692.6462.3692.3692.9231.2769.9231,0"></path><path d="M82.4959,27.7846c-.0923.1846.0923.2769.2769.1846a.6133.6133,0,0,0,.3692-.4615c0-.1846-.1846-.1846-.3692-.1846s-.4615.1846-.4615.3692c-.0923.0923.0923.1846.1846.0923"></path><path d="M86.5574,29.7231c.2769-.3693.1846-.9231-.3692-.7385-.1846-.1846-.6462,0-.7385.1846-.1846.1846-.0923.4616.0923.4616-.0923.4615.6462.5538,1.0154.0923"></path><path d="M85.45,32.4923c.4616,0,.9231-.9231.3693-.9231-.5539-1.0154-1.3847.9231-.3693.9231"></path><path d="M88.1266,31.0154c0-.3692-.6461-.3692-.7384-.0923a.8106.8106,0,0,0,.0923.6461c.0923.3693.6461-.0923.6461-.5538"></path><path d="M89.142,26.3077a.1985.1985,0,0,0-.1846.1846c0,.1846.3692.1846.5539.0923,0-.0923-.277-.2769-.3693-.2769"></path><path d="M87.2036,26.0308c.1846,0,.3692-.5539-.3693-.4616-.3692.0923-.4615.1846-.2769.3693a1.0192,1.0192,0,0,0,.6462.0923"></path><path d="M86.3728,26.7692c.0923-.0923-.0923-.2769-.1846-.3692a2.0328,2.0328,0,0,0-.7385.0923c-.0923,0-.0923.2769,0,.2769h.0923c-.0923.1846.1846.277.3693.277a.63.63,0,0,0,.4615-.277"></path><path d="M87.1113,27.6923a.37.37,0,0,0-.1846.5539c.1846.3692.7384.1846.6461-.1847.5538-.0923.3692-.6461-.4615-.3692"></path><path d="M102.1574,36.9231c.0923-.0923.4616-.6462.2769-.6462s-.5538.4616-.5538.5539c-.0923.1846.1846.1846.2769.0923"></path><path d="M101.7882,27.3231a1.8429,1.8429,0,0,0-.9231-.7385c-.0923,0-.2769.0923-.1846.1846,1.0154.8308.6461,1.1077.7385,1.3846,0,.0924.1846.0924.2769,0a.7788.7788,0,0,0,.1846-.6461c.5538-.3692.6461-.6462.6461-.7385,0-.1846-.0923-.2769-.1846-.1846a.7735.7735,0,0,1-.5538.7385"></path><path d="M99.7574,28.9846c.1846.2769.8308.0923.8308-.1846,0-.3692-.7385-.7385-1.2-1.2-.3693-.4615-.7385-1.3846.2769-1.8462.0923,0,0-.2769-.1846-.1846a1.3119,1.3119,0,0,0-.8308,1.8462c.2769.5538.5539.6461,1.1077,1.5692"></path><path d="M94.6805,24.4615c-.4615,0-.4615.1847-.0923.3693a1.27,1.27,0,0,0,1.0154-.0923c.1846-.1847-.1846-.277-.9231-.277"></path><path d="M94.9574,26.2154c.3692.0923.2769-.2769,0-.4616s-.6461-.1846-.6461,0,.3692.3693.6461.4616"></path><path d="M98.742,25.6615a.3971.3971,0,0,0,.3693-.3692c-.1847-.4615-.9231.2769-.3693.3692"></path><path d="M90.5266,26.2154H90.342c-.0923,0-.1846.2769-.0923.3692.3693.1846.7385-.0923.5539-.2769h.1846c.0923,0,.1846-.1846,0-.2769a.2988.2988,0,0,0-.4616.1846"></path><path d="M89.419,27.6c.1846.0923.7384.1846.7384-.0923s-.5538-.1846-.7384-.1846c-.277,0-.1847.1846,0,.2769"></path><path d="M96.25,25.2923c-.1846,0-.0923-.0923-.1846-.0923-.2769-.0923-.6461.1846-.1846.2769,0,.1846.1846.2769.4615.1846.277,0,.1846-.3692-.0923-.3692"></path><path d="M93.2959,25.1077c.3692.0923.5538-.2769.4615-.3692-.0923-.1847-.7385-.1847-1.0154,0-.2769.0923.1846.2769.5539.3692"></path><path d="M91.3574,28.4308c.2769.0923.7385-.0923.6462-.4616,0-.3692-.5539-.2769-.7385-.1846s-.2769.3692,0,.3692h0c-.0923.0924-.0923.277.0923.277"></path><path d="M91.9113,25.7538a.128.128,0,0,0,0,.1847c.2769.0923.3692.1846.4615,0,.1846-.277-.2769-.5539-.5538-.4616a.1768.1768,0,0,0-.0924.2769h.1847"></path><path d="M80.1882,26.8615c0-.0923-.1846-.1846-.2769-.1846-.1847.0923-.4616.4616-.277.5539.0923.0923.5539-.1846.5539-.3693"></path><path d="M77.9728,28.4308c.2769.0923.6462-.3693.6462-.5539,0-.0923-.0924-.0923-.1847,0-.1846.0923-.6461.4616-.4615.5539"></path><path d="M76.9574,29.4462l.0923-.0924a.1985.1985,0,0,0,.1846.1847c.1846,0,.3693-.0923.3693-.277s-.0923-.1846-.1846-.2769l.1846-.1846c.0923-.0923-.0923-.1846-.1846-.0923a3.4452,3.4452,0,0,0-.6462.5538c.0923,0,.0923.1847.1846.1847"></path><path d="M71.6036,34.4308c.1846-.3693.0923-.9231-.6462-.5539-.1846.0923-.2769.3693-.3692.5539-.0923.7384.8308.3692,1.0154,0"></path><path d="M87.5728,26.8615c.1846.1847.7385.0923.7385-.1846,0-.1846-.7385-.1846-.9231-.0923-.0923,0-.1846.2769-.0923.2769.1846.0923.2769,0,.2769,0"></path><path d="M89.8805,29.0769c.2769.0923.5538-.0923.4615-.3692a.5406.5406,0,0,0-.7384-.0923c-.1846.0923-.0923.4615.2769.4615"></path><path d="M93.942,29.1692c.1846.0923.277,0,.1846-.1846-.0923-.0923-.3692-.4615-.4615-.5538s-.2769,0-.2769.1846c-.4616.1846.3692.4615.5538.5538"></path><path d="M91.819,26.8615a2.0174,2.0174,0,0,0,.4615.277c.0923,0,.2769-.0923.2769-.1847a.1985.1985,0,0,0-.1846-.1846c-.2769-.1846-.6462,0-.5538.0923"></path><path d="M94.7728,31.8462c.0923.0923.4615.6461.5538-.0924.5539.1847.277-.6461,0-.6461-.2769-.0923-.3692.3692-.2769.5538-.1846-.2769-.3692,0-.2769.1847"></path><path d="M87.942,29.6308c-.1846.2769,0,.4615.277.4615.3692-.0923.8307-.3692.8307-.6461s-.3692-.6462-1.2-.1847c-.0923.0923-.0923.3693.0923.3693"></path><path d="M90.4343,30.2769c-.5538-.1846-1.2923,0-1.2.8308a.66.66,0,0,0,.8308.4615c.4615-.1846.6462-.4615.4615-.7384.277,0,.1847-.4616-.0923-.5539"></path><path d="M89.3266,32.9538a.4858.4858,0,0,0-.5538-.5538c-.6462,0-.9231,1.0154-.5538,1.1077.0923.5538,1.0153.1846,1.1076-.5539"></path><path d="M86.4651,32.9538c-.2769,0-.4615.6462-.3692.9231,0,.0923.1846.0923.1846,0,.0923.1846.2769.2769.3692.0923.2769-.2769.2769-1.0154-.1846-1.0154"></path><path d="M87.1113,34.1538a.2809.2809,0,0,0-.3693,0,.4169.4169,0,0,0,0,.5539c.2769.1846.7385-.0923.3693-.5539"></path><path d="M90.9882,32.6769c-.0923.2769.4615.2769.7384,0,.277-.1846.5539-.5538,0-.6461.0924-.7385-1.2,0-.7384.6461"></path><path d="M92.742,31.0154a.1985.1985,0,0,0-.1846-.1846.7.7,0,0,0-.3692.1846c-.0923.1846.2769.2769.4615.1846.1846,0,.2769-.1846.0923-.1846"></path><path d="M94.0343,30.7385a.2022.2022,0,0,0,.277-.0923c0-.3693-.1846-.6462-.4616-.6462-.1846-.0923-.3692.1846-.1846.2769-.0923.0923.0923.3693.3692.4616"></path><path d="M95.5113,33.5077s.0923-.2769-.0923-.3692c-.5539-.277-.4616.6461,0,.7384,0,0-.0924.1846,0,.2769,0,.1847.1846.0923.1846,0a.8106.8106,0,0,0,.0923-.6461.1278.1278,0,0,0-.1846,0"></path><path d="M93.2959,26.4h.3692c.0923-.0923.1846-.3692-.0923-.2769.1846-.2769-.2769-.2769-.4615-.1846-.0923,0-.277.2769.0923.2769,0,0-.0923.0923.0923.1846"></path><path d="M93.5728,27.4154c.1846.0923.6462.3692.7385.0923.0923-.1846-.3693-.3692-.6462-.3692-.0923,0-.2769.1846-.0923.2769"></path><path d="M96.342,30.5538c.0923-.3692-.3692-.6461-.5538-.6461-.0923,0-.1846.0923-.0923.1846-.2769.1846-.0923.6462.2769.6462.0923,0,.3692,0,.3692-.1847"></path><path d="M96.9882,29.2615c-.0923-.0923-.1846-.0923-.2769-.1846a.1986.1986,0,0,0-.1847.1846,1.6559,1.6559,0,0,1,.4616.6462.1769.1769,0,0,0,.2769-.0923v-.1846a.09.09,0,0,0,.0923.0923c.0923.1846.3692-.0923.2769-.1846a2.4453,2.4453,0,0,0-.4615-.5539s-.1846.1846-.1846.2769"></path><path d="M98.2805,28.9846c-.0923,0-.2769,0-.2769.0923a1.357,1.357,0,0,0,.4615.5539c.0923,0,.2769-.0923.2769-.1846.0923-.0924-.1846-.3693-.4615-.4616"></path><path d="M99.4805,29.8154a.4348.4348,0,0,0,.0923.5538.2947.2947,0,0,0,.2769-.2769c0-.2769-.2769-.2769-.3692-.2769"></path><path d="M97.1728,26.4923c.0923-.0923-.2769-.2769-.3692-.0923a.3263.3263,0,0,0,.4615.4615c.0923,0,.2769-.3692-.0923-.3692"></path><path d="M95.5113,26.8615c0,.0923.0923.277.1846.277.2769.0923.3692-.0923.3692-.3693a.3414.3414,0,0,0-.1846-.2769.326.326,0,0,0-.3692.3692"></path><path d="M96.8959,27.6c-.2769,0-.3693.8308.3692.7385.3692,0,.2769-.7385-.3692-.7385"></path><path d="M97.6343,31.1077c-.3692-.1846-.7384.3692-.1846.5538-.0923.277.3693.3693.5539.3693s.2769-.5539-.3693-.9231"></path><path d="M98.5574,31.2923c.1846,0,.3692-.0923.2769-.2769a.3685.3685,0,0,0-.3692-.1846c-.3692.2769,0,.4615.0923.4615"></path><path d="M99.6651,31.5692c-.0923-.0923-.2769.0923-.2769.1846a.618.618,0,0,0,.3692.6462c.0923.0923.2769,0,.2769-.1846-.0923-.0923-.2769-.5539-.3692-.6462"></path><path d="M100.4036,30.7385c-.1846-.0923-.6462.1846-.277.3692a.1051.1051,0,1,0,.0923.1846c.1847,0,.3693-.4615.1847-.5538"></path><path d="M89.9728,34.8923c.7385,0,.2769-1.0154-.0923-.5538-.1846-.277-.5539.0923-.4615.3692s.3692.6461.5538.1846"></path><path d="M93.4805,33.5077c-.0923.0923-.1846.5538.2769.4615,0,.0923.1846,0,.2769,0,.0923-.5538-.3692-.7384-.5538-.4615"></path><path d="M93.942,32.4c.5539.1846.0923-.4615-.2769-.6462a.4057.4057,0,0,0-.4615.0924c-.0923.3692.3692.923.7384.5538"></path><path d="M93.5728,34.8923c-.4615.2769-.4615.8308.0923.8308-.0923.1846.1846.2769.3692.1846a.7425.7425,0,0,0,.277-1.0154c-.1847-.1846-.5539-.0923-.7385,0"></path><path d="M88.0343,35.1692a.3392.3392,0,0,0-.0923.277c-.1846.2769,0,.923.4616.8307.1846,0,.1846-.0923.2769-.1846.0923,0,.1846,0,.1846-.0923-.0923-.5538-.6461-.9231-.8308-.8308"></path><path d="M92.1882,37.2c.7385,0,.7385-1.2923,0-1.1077-.2769.0923-.7385.4615-.3692.7385-.277.2769.1846.3692.3692.3692"></path><path d="M91.2651,33.9692a1.0773,1.0773,0,0,0,.1846,1.0154c.1846.1846.6462.0923.8308-.5538.4615,0,.2769-.5539-.1846-.7385a.634.634,0,0,0-.8308.2769"></path><path d="M93.942,37.4769c-.0923-.0923-.3692,0-.4615.0923s-.0923.4616.1846.4616c.3692,0,.4615-.4616.2769-.5539"></path><path d="M94.7728,39.6923c.3692-.3692.4615-.8308.0923-.9231-.0923-.2769-.8308-.0923-.8308.6462-.0923.8308.4616.5538.7385.2769"></path><path d="M96.8036,36.3692c-.277-.3692-.6462-.0923-.3693.7385.0923.0923.1847.3692.3693,0a.9872.9872,0,0,0,0-.7385"></path><path d="M90.4343,38.7692c-.0923.4616.277.7385.7385.5539a1.0609,1.0609,0,0,0,.5538-.8308.4946.4946,0,0,0-.2769-.3692c.0923-.0923,0-.1846-.1846-.1846a.9742.9742,0,0,0-.8308.8307"></path><path d="M92.9266,39.3231c-.0923-.1846-.2769-.0923-.3692-.0923-.6461.2769-.2769,1.2923.1846.7384.3693.1846.2769-.4615.1846-.6461"></path><path d="M95.5113,41.7231c0-.1846-.0923-.3693-.4616-.3693.2769-.3692,0-.6461-.2769-.5538s-.6462.5538-.2769.8308c-.3693,1.1077.9231.6461,1.0154.0923"></path><path d="M96.25,38.8615c.3693.0923.2769-.923,0-.923s-.5538,1.4769,0,.923"></path><path d="M96.1574,40.8a.1982.1982,0,0,0,.3692.0923c.0924-.0923.3693-.6461.277-.8308,0-.1846-.277-.2769-.4616-.0923-.0923.1846-.0923.6462-.1846.8308"></path><path d="M90.8959,41.8154c-.0923.5538.2769.4615.3692.3692.2769-.2769.5539-1.4769-.0923-1.4769-.5538.0923-.7385,1.2-.2769,1.1077"></path><path d="M89.419,40.8923c.2769,0,.8307-1.4769.0923-1.1077-.277-.0923-.3693.3692-.3693.4616,0,.2769,0,.6461.277.6461"></path><path d="M96.8036,46.8923c.4615-.2769.7384-.6461.5538-.9231-.0923-.1846-.5538-.1846-.9231.1846-1.2923.0924-.5538,1.2924.3693.7385"></path><path d="M96.1574,45.6c.3692-.1846.3692-.6462,0-.7385a1.1506,1.1506,0,0,0-1.1077.277c-.0923.0923,0,.1846.0923.1846-.2769.3692.7385.3692,1.0154.2769"></path><path d="M98.0036,44.5846c.1846-.0923.3692-.2769.2769-.4615-.1846-.2769-1.1077-.1846-1.0154.2769.0923.2769.5539.2769.7385.1846"></path><path d="M88.7728,42.3692c.4615,0,.1846-.6461.0923-.7384-.1846-.1846-.3692-.0923-.4615.0923a.5707.5707,0,0,0,.1846.6461c0,.0923.0923.0923.1846,0"></path><path d="M90.25,43.2923c.0923-.1846,0-.5538-.2769-.5538s-.5539.3692-.3692.8307c-.277.277.1846.3693.3692.277a1.0163,1.0163,0,0,0,.2769-.5539"></path><path d="M92.1882,43.7538a.27.27,0,0,0-.0923-.4615c-.0923-.4615-.9231.1846-.6462.5539.1846.2769.5539.0923.7385-.0924"></path><path d="M93.6651,43.1077c-.5538.0923.0923.4615.6462.3692.2769,0-.3693-.7384-.6462-.3692"></path><path d="M94.4036,43.9385c-.277-.0923-.6462.0923-.5539.3692,0,.0923.3693.1846.7385.0923.1846,0,.1846-.2769.0923-.4615h-.2769"></path><path d="M92.8343,44.9538c-.0923-.2769-1.0153-.2769-1.3846.1847s-.1846.8307.1846.8307c.3693-.0923,1.3846-.7384,1.2-1.0154"></path><path d="M91.1728,44.4923c-.2769-.0923-.6462.3692-.6462.7385,0,.1846.277.0923.3693,0,.1846-.1846.3692-.6462.2769-.7385"></path><path d="M88.0343,46.9846c-.1846,0-.3692.0923-.2769.2769s.3692,0,.3692-.0923c.0924-.0923,0-.1846-.0923-.1846"></path><path d="M89.05,46.9846a.3116.3116,0,0,0,.4616.2769c.1846-.0923.4615-.4615.1846-.6461-.0923-.0923-.6462.1846-.6462.3692"></path><path d="M91.1728,46.8c-.1846,0-.4615.6462-.1846.7385.4615.1846.5538-.7385.1846-.7385"></path><path d="M93.85,46.2462c.0923-.1847-.2769-.277-.4615-.1847a.4947.4947,0,0,0-.2769.3693c-.277,0-.1847.3692,0,.2769a1.0389,1.0389,0,0,0,.7384-.4615"></path><path d="M84.5266,29.9077c-.4615-.0923-.6461.4615-.3692.6461s.8308-.5538.3692-.6461"></path><path d="M98.4651,33.8769c-.2769-.2769-.7385-.2769-.8308-.0923s.3693.5539.7385.5539c.6461-.0923.3692-.4616.0923-.4616"></path><path d="M99.2036,32.5846c-.1846.1846,0,.3692.1846.4616a.1986.1986,0,0,0,.1846-.1847c.0923-.2769-.1846-.4615-.3692-.2769"></path><path d="M100.9574,33.5077c.0923-.0923.0923-.2769,0-.2769-.1846-.1846-.6461.1846-.2769.2769-.0923.0923.1846.1846.2769,0"></path><path d="M63.85,36.2769c-.3692-.0923-.9231-.0923-1.0154.3693-1.2923,0,.4616,1.4769.7385.3692.7385,0,.7385-.5539.2769-.7385"></path><path d="M70.219,35.7231c.1846-.4616-.4616-.4616-.6462-.0923-.1846.5538.4615.5538.6462.0923"></path><path d="M69.2036,37.5692c-.1846.1846-.1846.4616.0923.4616.2769.6461,1.2923-.277,1.0154-.7385a1.05,1.05,0,0,0-1.1077.2769"></path><path d="M67.819,36.4615c-.277.1847-.3693.4616-.277.5539.277.3692,1.0154-.0923,1.1077-.5539.0923-.1846-.1846-.4615-.8307,0"></path><path d="M67.819,32.9538c.1846.0924.5538.0924.6461-.1846.5538-.0923,0-.3692-.4615-.3692-.277.0923-.4616.3692-.1846.5538"></path><path d="M113.9728,49.2c.1846.2769.7385-.1846.4615-.3692s-.6461.0923-.4615.3692"></path><path d="M113.05,50.7692c-.4615.0923-.6461-.6461-.1846-.6461s.7385.6461.1846.6461"></path><path d="M111.7574,34.8923a1.8557,1.8557,0,0,1-.3692.7385c-.1846.1846-.4616,0-.3693-.0923.0924-.5539-.1846-.6462-.1846-1.0154,0-.2769,1.0154,0,.9231.3692"></path><path d="M109.542,32.4923c0-.5538-.7384-.6461-.7384-1.2923,0-.2769.5538-.9231.1846-1.1077a1.4835,1.4835,0,0,0-1.5693.4615c0,.277.8308.1847.8308.5539,0,.4615.6462.9231.8308,1.4769a1.7783,1.7783,0,0,1-.4615,1.7539c-.3693.3692.1846.4615,0,.7384-.4616.7385-1.6616.4616-1.8462.8308a2.389,2.389,0,0,0,2.2154.9231.84.84,0,0,0,.5538-1.3846c-.0923-.1847.1846-.3693.277-.6462.3692-.4615-.277-.3692-.277-2.3077"></path><path d="M14.0959,44.1231c-2.9539.0923-5.9077,2.2154-9.4154,1.0154-.2769-.0923-.4615.1846-.1846.3692,3.5077,1.4769,6.6461-.9231,9.6-1.2.0923,0,.1846-.1846,0-.1846"></path><path d="M44.1882,27.9692a7.28,7.28,0,0,0-2.1231-.8307c-.0923,0-.2769.1846-.0923.2769l.8308.2769c-.0923.0923,0,.3692.1846.4615.2769.0924.6461,0,.6461-.0923.1847.0923.277.1847.4616.1847.0923,0,.2769-.1847.0923-.277"></path><path d="M38.1882,29.0769a.4867.4867,0,0,0-.6462.1846c-.3692-.0923-.4615.277-.2769.3693a.8828.8828,0,0,0,.8308,0c.1846-.1846.2769-.4616.0923-.5539"></path><path d="M88.219,40.3385c0-.277-.277-.277-.277-.1847,0-.0923-.1846-.1846-.1846-.0923a2.5557,2.5557,0,0,0,.0923.8308c.0923.2769.4616,0,.3693-.5538"></path><path d="M87.6651,38.9538c0,.277.3692.277.4615.0924.277-.3693-.3692-.6462-.4615-.0924"></path><path d="M88.7728,37.2923a.3371.3371,0,0,0-.1846.4615c0,.0924.0923.1847.1846.0924,0,.4615.2769.5538.4615.4615.3693-.0923.1847-1.2923-.4615-1.0154"></path><path d="M96.9882,32.3077c-.4616-.0923-.4616.1846-.2769.3692.4615.5539.8307-.2769.2769-.3692"></path><path d="M96.25,32.2154c.1846.0923.3693-.0923.2769-.1846-.0923-.4616-.4615,0-.2769.1846"></path><path d="M92.9266,41.5385c-.3692-.0923-.3692.5538-.1846.8307.277.3693.5539,0,.5539-.5538.2769,0,.2769-.3692.2769-.5539-.0923-.3692-.4615-.4615-.6462.277"></path><path d="M53.5113,30.6462a14.1535,14.1535,0,0,0-3.1385-.9231c-1.6615-.2769-2.7692-.2769-3.7846-.9231-.1846-.0923-.3692.0923-.1846.1846a5.206,5.206,0,0,0,2.123.6462c-.6461.2769-.1846.7384.6462.5538.1846,0,.3692-.2769.1846-.3692h0c.2769.0923.6462.0923,1.0154.1846.2769.0923.6462.1846,1.0154.2769v.0923a.9105.9105,0,0,0,.9231.1846h0c.2769.0924.6461.1847.923.277.4616.2769.5539-.0923.277-.1846"></path><path d="M45.5728,28.4308c-.8308-.3693-.6462.1846-.2769.2769.5538.2769,1.0154,0,.2769-.2769"></path><path d="M95.6036,47.6308a7.8761,7.8761,0,0,1-2.0308-.4616c-.1846-.0923-.3692.1846-.2769.277a7.7656,7.7656,0,0,1-.8308.6461c-.1846.0923-.1846.3692.0923.2769a7.7,7.7,0,0,0,1.1077-.7384,6.63,6.63,0,0,0,1.7538.1846c.277.0923.4616-.0923.1847-.1846"></path><path d="M91.542,48.4615c-.1846.277.1846.3693.3693.1847.2769-.4616.2769-.6462.0923-.6462-.0923,0-.277.1846-.4616.4615"></path><path d="M90.8036,47.8154c-.1846,0-.4616.4615-.1846.4615.1846,0,.4615-.4615.1846-.4615"></path><path d="M106.5882,48.7385c.0923-.3693-.8308-.3693-.7385-.0923.0923.3692.7385.4615.7385.0923"></path><path d="M98.3728,47.3538c-.1846.277.0923.3693.3692.1847a.9219.9219,0,0,0,.3693-.4616c.0923-.1846-.0923-.3692-.277-.1846-.1846.2769-.2769.2769-.4615.4615"></path><path d="M97.45,47.3538c-.1846.1847,0,.3693.3693.1847s.4615-.4616.3692-.4616c-.0923-.0923-.3692,0-.7385.2769"></path><path d="M99.85,44.6769a.4247.4247,0,0,0-.2769.6462c.0923.1846,1.2.7384,1.2923.1846.0923-.6462-.4615-.9231-1.0154-.8308"></path><path d="M103.542,45.6c-.1846-.1846-.7384-.1846-.8307.0923-.0923.1846.2769.3692.7384.1846.0923-.0923.1846-.1846.0923-.2769"></path><path d="M102.619,44.5846c-.5539.0923-.4616.3692-.277.4616s.8308.1846.9231-.0924c.1846-.2769-.2769-.3692-.6461-.3692"></path><path d="M105.1113,45.6923c.0923.1846.6461.1846.8307-.0923.4616-.5538-1.1077-.5538-.8307.0923"></path><path d="M107.8805,45.5077c-.2769,0-.5539.5538-.1846.7385.2769.0923.8308.1846,1.0154,0,.2769-.3693-.5539-.8308-.8308-.7385"></path><path d="M110.3728,45.8769c-.5538-.2769-.8308.4616-.0923.6462.1846.0923.6461-.3693.0923-.6462"></path><path d="M111.2959,46.5231c-.1846-.0923-.4616.3692-.1846.4615.3692,0,.6461-.3692.1846-.4615"></path><path d="M107.6036,46.5231a1.1281,1.1281,0,0,0-.8308-.2769.4254.4254,0,0,0-.0923.8307c1.0154.3693,1.1077-.3692.9231-.5538"></path><path d="M118.219,47.6308c-.3693.2769-.3693.8307-.7385.7384-.0923,0-.2769-.1846-.1846-.5538,0-.2769-.277-.3692-.4616,0-.3692.7384-1.1077.4615-1.9384.8308-.2769.0923-.1846.4615-.0923.5538a5.52,5.52,0,0,0,3.1384-.2769,2.0213,2.0213,0,0,0,1.1077-1.2c.0923-.2769-.4615-.3693-.8307-.0923"></path><path d="M104.0959,48.4615a2.8734,2.8734,0,0,0-.5539.3693c-.1846.0923-.1846.4615.1846.2769a.8979.8979,0,0,0,.5539-.4615c.1846-.0924.0923-.3693-.1846-.1847"></path><path d="M101.9728,48.5538l-1.1077.277c-.1846.0923-.2769.4615,0,.3692s.9231-.2769,1.1077-.3692c.2769-.0923.2769-.277,0-.277"></path><path d="M103.0805,47.3538a10.6013,10.6013,0,0,0-1.7539-.0923c.0923-.0923.1847-.3692.0923-.4615-.2769-.3692-1.0153,0-1.2.2769a.3388.3388,0,0,0,.0924.2769c-.1847,0-.3693.0924-.6462.0924-.1846,0-.3692.3692-.0923.2769a13.6837,13.6837,0,0,1,3.3231-.0923c.2769.0923.4615-.1846.1846-.277"></path><path d="M103.2651,48.3692l-.2769.277c0-.277-.2769-.277-.2769-.0924v.4616c0,.0923.1846.0923.2769,0,.1846-.0923.3692-.3692.5538-.5539.0923-.0923-.0923-.2769-.2769-.0923"></path><path d="M106.0343,47.6308a10.7189,10.7189,0,0,0-2.123-.1846c.1846-.277-.0923-.3693-.1847-.277s-.1846.1846-.1846.277c-.0923.2769.0923.2769.277.1846a6.6792,6.6792,0,0,1,2.123.1846.1051.1051,0,1,0,.0923-.1846"></path><path d="M82.7728,46.5231c-.0923.0923-.2769.5538-.3692.6461-.0923.277.0923.3693.1846.1846a7.32,7.32,0,0,0,.3692-.8307c.1846-.1846,0-.1846-.1846,0"></path><path d="M81.2036,44.1231c0,.5538-.1846,1.0154-.4616.6461-.1846.277-.6461,0-.0923-.3692.0923-.0923.277.0923.277.0923a.9547.9547,0,0,0,.0923-.3692c0-.1846.1846-.1846.1846,0"></path><path d="M74.1882,47.6308c-.0923.2769-.1846.3692-.2769.6461-.0923.3693.2769.2769.3692.0923.0923-.2769.0923-.3692.1846-.6461.0923-.3693-.1846-.2769-.2769-.0923"></path><path d="M57.942,45.4154c-.1846,0-.5538.4615-.2769.4615.1846,0,.5539-.4615.2769-.4615"></path><path d="M113.2343,48.9231c-1.5692-.5539-3.2307.0923-4.6153-.4616-.1847-.0923-.3693.0923-.0924.277,1.2.5538,2.8616.0923,4.5231.4615.2769,0,.4616-.1846.1846-.2769"></path><path d="M18.1574,38.5846c.1846-.1846.2769-.3692,0-.7384,0-.7385-.4615-.9231-.6461-.9231-.277-.9231-1.2.0923-.7385.6461-.3692.6462,0,1.3846.5538,1.1077h0c-.7384.1846-1.5692.4616-2.3076.6462.2769-.1846.4615-.4616.2769-.7385.1846-.2769.0923-.7384-.2769-.7384.2769-.5539-.5539-.277-.5539-.5539,0-.1846-.2769-.1846-.3692-.0923a.3214.3214,0,0,0-.0923.4615c-.3693.277-.4616.9231,0,1.0154-.1846.3693-.0923.7385.2769.8308a5.8912,5.8912,0,0,0-.6462.1846c-.2769.0923-.1846.3692.1847.2769,4.8923-1.3846,7.8461-2.5846,8.123,0,0,.1847.277.0923.277-.0923-.0924-1.6615-1.8462-1.7538-4.0616-1.2923"></path><path d="M10.0343,40.9846l-.8307.2769a1.5236,1.5236,0,0,0,0-1.1077c-.0923-.4615-.3693-1.2-.8308-1.2-.1846,0-.2769.1847-.2769.4616,0,.1846.0923.4615-.1846.5538-.1847.0923-.1847.3693,0,.3693a1.3976,1.3976,0,0,0-.0923,1.2.3223.3223,0,0,0,.1846.0923l-.8308.2769a.3115.3115,0,0,0-.2769-.4615.7228.7228,0,0,0-.3693-1.1077c.277-.3693,0-.9231-.4615-.6462-.3692.2769-.8308,1.1077-.3692,1.2a.5668.5668,0,0,0,.0923.5539c-.2769.3692-.4616.923-.0923,1.1076h.1846c-.2769.1847-.5539.277-.8308.4616-.0923.0923.0923.1846.1846.1846a24.9057,24.9057,0,0,1,4.8-2.0308c.1847-.0923.1847-.2769,0-.1846"></path><path d="M21.2036,40.2462a1.2426,1.2426,0,0,0-.8308-.4616c-.0923,0-.3692.0923-.2769.2769,0,.0923.0923.0923.0923.1847a1.333,1.333,0,0,0-.6462-.1847c-.1846,0-.3692.277-.1846.3693a13.5433,13.5433,0,0,1,1.2923.5538c.0923.0923.3693-.0923.2769-.2769-.0923-.0923-.0923-.1846-.1846-.2769.0923.0923.1846.0923.277.1846.1846-.0923.2769-.2769.1846-.3692"></path><path d="M19.819,40.8a2.12,2.12,0,0,0-1.2924-.3692c-.0923,0-.2769.2769-.0923.2769.4616.0923.8308.1846,1.2923.2769A.1051.1051,0,1,0,19.819,40.8"></path><path d="M30.5266,33.9692c-1.4769,1.0154-2.7692,1.8462-4.3384,2.7693a.2284.2284,0,0,0-.0923-.3693c.3692-.1846.1846-.6461-.2769-.7384.2769-.4616-.3693-.5539-.9231-.5539-.1846,0-.1846.3693,0,.3693h.1846a.4186.4186,0,0,0-.1846.7384c-.3693.5539.3692.8308.9231.7385-.277.0923-.4616.2769-.7385.3692-.0923.0923-.0923.3692.0923.2769a20.4212,20.4212,0,0,0,5.5385-3.4154c.0923,0,0-.2769-.1847-.1846"></path><path d="M3.3882,42.0923c.3692,0,.3692-.0923.3692-.2769-.0923-.3692-.9231-.7385-1.2923-.8308-.2769-.0923-.3692.3692,0,.5539a.9705.9705,0,0,0-1.1077.2769c-.2769-.1846-.6461-.1846-.7384,0a.6782.6782,0,0,0,.1846.5538c.1846.3693-.277.3693-.6462.6462-.2769.1846-.2769.5538.7385,1.0154-.7385.923,1.6615,1.2923,2.7692,1.1077.3692-.0924.3692-.3693.1846-.5539-.4615-.4615-.2769-1.1077.1846-1.2.8308-.1846.4616-.5538-.6461-1.2923"></path><path d="M70.9574,31.3846c-2.3077-.0923-5.1692-.0923-7.9384,0-.1847,0-.277.2769,0,.2769h1.2923a.3223.3223,0,0,0-.0923.1847c-.0923.5538,1.8461.2769,1.3846-.1847h1.6615c0,.1847.8308.3693,1.0154,0h1.2c-.1846.0923-.0923.277.0923.277.4615.0923,1.1077-.0923.8308-.277h.4615c.0923-.0923.2769-.2769.0923-.2769"></path><path d="M45.85,43.4769a10.0759,10.0759,0,0,0-1.5692.4616c-.1846.0923-.1846.2769.0923.1846.3692-.0923,1.0154-.3693,1.4769-.4616.2769-.0923.1846-.2769,0-.1846"></path><path d="M39.85,44.2154h-.4615c-.1846,0-.3692.3692-.1846.4615.1846,0,.4615,0,.5538-.0923.1846-.0923.2769-.3692.0923-.3692"></path><path d="M57.4805,44.9538a2.3153,2.3153,0,0,0-.3692.6462c0,.1846,0,.2769.1846.1846a3.2381,3.2381,0,0,0,.4615-.7384c0-.0924-.2769-.1847-.2769-.0924"></path><path d="M56.4651,44.4923c-.0923-.1846-.2769-.0923-.2769.0923s.0923.3692.0923.5539.2769.0923.2769-.1847c0-.0923,0-.3692-.0923-.4615"></path><path d="M55.819,43.9385a.1769.1769,0,0,0-.277.0923c0,.1846.0923.5538.0923.7384.0923.0923.277,0,.277-.1846s0-.5538-.0923-.6461"></path><path d="M55.3574,44.4923a.1985.1985,0,0,0-.1846-.1846c-.1846-.1846-.2769,0-.1846.1846,0,.0923.0923.1846.0923.2769.0923,0,.3692-.1846.2769-.2769"></path><path d="M53.419,43.8462c0,.0923-.1847.1846-.1847.2769-.0923.1846.0923.2769.277.0923,0-.0923.0923-.1846.1846-.2769.0923-.1847-.1846-.1847-.2769-.0923"></path><path d="M52.9574,43.4769a.3223.3223,0,0,1-.0923.1846.09.09,0,0,0-.0923-.0923c-.0923-.1846-.3692,0-.2769.1846,0,.0924.0923.1847.0923.277a.1731.1731,0,0,0,.2769,0c.0923-.0923.1846-.3693.2769-.4616.1846-.1846-.0923-.2769-.1846-.0923"></path><path d="M58.9574,45.7846l-.3692.3692a.1051.1051,0,1,0,.1846.0924c.0923-.0924.1846-.277.3692-.3693.0923-.0923-.0923-.1846-.1846-.0923"></path><path d="M59.6036,45.6923a2.8038,2.8038,0,0,0-.4616.6462c-.0923.1846.0923.3692.277.1846s.2769-.5539.3692-.6462c0-.1846-.0923-.2769-.1846-.1846"></path><path d="M62.9266,47.3538a.9539.9539,0,0,0-.3692.0924.3227.3227,0,0,0,.0923-.1847c.0923-.1846-.0923-.2769-.1846-.0923l-.2769.5539c0,.0923,0,.1846.0923.1846a.9547.9547,0,0,0,.3692-.0923v.2769a.1384.1384,0,0,0,.2769,0c0-.0923.0923-.2769.0923-.3692.0924-.2769,0-.4616-.0923-.3693"></path><path d="M60.5266,46.2462l-.1846.1846v-.1846c0-.0924-.1846-.0924-.1846,0a.7805.7805,0,0,0,0,.6461c0,.1846.1846.1846.2769.0923a1.9293,1.9293,0,0,0,.3693-.5538c0-.0923-.0923-.277-.277-.1846"></path><path d="M63.4805,47.3538c-.0923.0924-.0923.277-.1846.3693-.0923.1846.0923.2769.1846.0923.0923-.0923.0923-.2769.1846-.3692.0923-.1847-.0923-.277-.1846-.0924"></path><path d="M61.7266,47.1692c0,.1846-.0923.3693-.0923.5539s.277.0923.277,0a1.1711,1.1711,0,0,0,.0923-.5539c.0923-.2769-.1846-.1846-.277,0"></path><path d="M61.2651,45.0462l-.2769.2769c-.0923.0923.0923.1846.1846.0923s.1846-.1846.1846-.2769c.1846-.0923,0-.1847-.0923-.0923"></path><path d="M62.0959,45.2308c-.0923.0923-.1846.0923-.277.1846v-.0923c0-.1846-.1846-.0923-.2769,0,0,.0923-.0923.1846-.0923.3692,0,.0923.0923.1846.1846.0923a.9217.9217,0,0,0,.4616-.3692c.1846-.0923.1846-.2769,0-.1846"></path><path d="M67.2651,48.8308c0-.1846-.0923-.4616-.0923-.6462s-.2769-.0923-.2769.0923.0923.4616.0923.6462c0,.0923.2769,0,.2769-.0923"></path><path d="M73.6343,48.4615a1.3119,1.3119,0,0,0-.1846-.5538c-.0923-.1846-.2769-.0923-.2769.0923s.0923.3692.0923.5538c.1846.277.4615.0924.3692-.0923"></path><path d="M98.4651,24.7385a5.6086,5.6086,0,0,0-1.7538-.0923c-.0923,0-.1847.1846,0,.1846a4.4938,4.4938,0,0,1,1.1076.0923v.0923c-.3692.2769.0924.6461.277.5538s.0923-.2769,0-.3692a.2021.2021,0,0,0,.0923-.2769h.2769s.1846-.1846,0-.1846"></path><path d="M91.819,29.4462c-.5539-.1847-.5539.4615-.277.6461.5539.1846.9231.1846,1.1077-.2769.0923-.3692-.7384-.8308-.8307-.3692"></path><path d="M102.619,25.3846a5.21,5.21,0,0,0-.6462-.0923c-.0923,0-.2769.1846-.0923.2769a1.3119,1.3119,0,0,1,.5538.1846c.1847-.0923.3693-.2769.1847-.3692"></path><path d="M107.05,31.2923c0-.0923-.0923-.1846-.1846-.0923s-.1846.0923-.1846.1846c-.0923.1846.0923.1846.1846.1846v.1847c.0923.1846.2769,0,.2769-.0924a.92.92,0,0,1-.0923-.3692"></path><path d="M105.85,31.6615c0-.1846-.4615-.4615-.6461-.0923s.7384.5539.6461.0923"></path><path d="M104.9266,32.4c-.2769,0-.4615.3692-.1846.3692.3693.0923.5539-.4615.1846-.3692"></path><path d="M103.3574,32.2154c-.2769-.2769-.8308.2769-.4615.4615.4615.2769.7384-.2769.4615-.4615"></path><path d="M101.7882,29.7231a.3223.3223,0,0,0-.1846.0923s.0923-.1846.1846-.1846c.0923-.0923,0-.277-.0923-.1846a1.6558,1.6558,0,0,0-.4616.6461c0,.1846.1846.0923.1846.0923v.1846s.1847.0923.1847,0L101.7882,30q.2769-.2769,0-.2769"></path><path d="M101.8805,31.1077a.8186.8186,0,0,0-.4615.3692c-.0924.1846.0923.1846.1846.0923l.2769-.2769c.1846-.0923.1846-.1846,0-.1846"></path><path d="M102.1574,31.8462c-.2769-.3693-.6461.2769-.5538.3692.0923.1846.7384-.0923.5538-.3692"></path><path d="M103.45,33.3231c-.4615,0-.3692.6461.0923.5538.0923,0,.1846-.0923.0923-.2769.1847-.0923,0-.2769-.1846-.2769"></path><path d="M102.5266,33.5077c-.3692,0-.4615.6461-.0923.6461a.3266.3266,0,0,0,.0923-.6461"></path><path d="M104.8343,33.2308c-.2769,0-.3692.2769-.0923.2769.1846.0923.2769-.2769.0923-.2769"></path><path d="M106.3113,32.5846c-.277,0-.4616.4616-.1847.4616s.4616-.4616.1847-.4616"></path><path d="M107.05,33.1385c-.2769-.0923-.2769.1846-.1846.2769.2769,0,.4615-.1846.1846-.2769"></path><path d="M104.0036,30.9231c0-.1846-.5539,0-.3693.1846s.3693,0,.3693-.1846"></path><path d="M104.65,30c-.1846-.0923-.3692-.1846-.4615,0-.1846.2769,0,.4615.2769.3692s.3692-.2769.1846-.3692"></path><path d="M105.2959,29.7231c-.0923,0-.3693.0923-.277.2769.1847.2769.6462-.2769.277-.2769"></path><path d="M109.3574,28.9846c-.0923-.1846-.4615.0923-.3692.2769l.1846.277c.0923.0923.3692-.277.1846-.5539"></path><path d="M107.419,27.1385c-.1847,0-.277.2769-.0924.2769s.3693-.2769.0924-.2769"></path><path d="M89.2343,45.0462c-.2769-.277-1.1077.1846-1.1077.2769s.0924.1846.277.1846c.0923,0,.2769-.0923.3692-.0923a.7.7,0,0,0-.1846.3692c.0923.2769.9231-.2769,1.1077-.6461.0923-.1847,0-.4616-.4616-.0923"></path><path d="M101.419,29.1692c-.0924,0-.1847,0-.1847.0923s-.0923.0923-.0923.1847-.0923.1846,0,.1846.1846,0,.1846-.0923.0924-.0923.0924-.1847v-.1846"></path><path d="M95.6036,28.4308c.2769-.277-.277-.5539-.4616-.6462-.0923-.0923-.2769.1846-.1846.2769a1.7211,1.7211,0,0,0,.2769.3693c-.4615.1846.1847.5538.3693.5538s.3692-.1846,0-.5538"></path><path d="M98.0036,26.6769h0c-.1846-.1846-.6462.1846-.3693.3693h0c.1847.1846.5539-.1847.3693-.3693"></path><path d="M97.45,26.1231c0,.0923.2769.2769.3693,0,.0923-.1846-.277-.2769-.3693,0"></path><path d="M98.65,28.3385c-.1846-.1847-.7384-.0923-.4615.1846.1846.1846.6461.0923.4615-.1846"></path><path d="M110.1882,36.9231a.9416.9416,0,0,1-.8308.1846c-.1846,0-.2769.0923-.2769.1846-.4615,1.0154-1.8462.7385-2.6769.4615-.1846-.0923-.3693.0924-.1846.1847,1.2.4615,2.5846.5538,3.0461-.5539a1.5416,1.5416,0,0,0,.8308-.2769c.2769-.0923.2769-.3692.0923-.1846"></path><path d="M106.1266,37.3846a1.2742,1.2742,0,0,0-.3692.2769c-.2769.1847-.0923.4616.1846.277.0923-.0923.277-.1847.3693-.3693.0923-.0923-.0923-.3692-.1847-.1846"></path><path d="M105.4805,37.2923c-.1846,0-.4616.3692-.1846.3692.1846,0,.4615-.3692.1846-.3692"></path><path d="M99.2959,43.2923a6.8889,6.8889,0,0,0-2.6769-.1846.7714.7714,0,0,0-.5539-.8308c-.3692-.0923-.2769.6462,0,.8308-.1846,0-.3692.0923-.5538.0923-.277,0-.0923.2769.0923.1846a11.7317,11.7317,0,0,1,3.6,0c.1846.1846.2769,0,.0923-.0923"></path><path d="M101.6036,36.5538a3.3284,3.3284,0,0,1-1.3846-.7384,1.2762,1.2762,0,0,1-.277-1.4769h0c.4616.0923.0923-.6462-.1846-.6462s-.1846.2769,0,.4615a.9347.9347,0,0,0-.3692.6462c-.4616-.2769-1.2.1846-.7385.4615l-1.1077.3693h0c0-.1846-.0923-.277-.0923-.4616.1846.0923.4616,0,.3693-.2769a.63.63,0,0,0-.4616-.2769,6.3636,6.3636,0,0,0-.6461-1.3846c-.0923-.1846-.277,0-.1846.1846a9.5563,9.5563,0,0,1,.923,3.8769c0,.2769.277.0923.277-.0923V36.0923h0c.4615-.0923,1.4769-.3692,1.8461-.4615.2769.5538.9231.9231,2.0308,1.1077,0,.0923.1846-.1847,0-.1847"></path><path d="M31.0805,38.4923c-.1846,0-.2769.0923-.4615.1846,0,0,.0923-.4615.0923-.5538,0-.1846-.1847-.1846-.277-.0923,0,.0923-.0923.4615-.1846.9231a6.15,6.15,0,0,0-1.1077.5538c-.0923.0923,0,.2769.0923.1846a9.6026,9.6026,0,0,1,1.1077-.4615c.4616.0923.8308-.2769.6462-.4616.2769-.1846.2769-.2769.0923-.2769"></path><path d="M76.1266,30s.277-.1846.4616-.2769a.1051.1051,0,1,0-.0923-.1846,11.0786,11.0786,0,0,1-3.4154,1.3846c-.2769.0923-.2769.2769-.0923.2769l1.1077-.2769c-.0923.1846.0923.3692.4615.3692.4616-.0923.5539-.4615.2769-.6461a4.4944,4.4944,0,0,1,.6462-.277c-.0923.0923.1846.1846.2769.0923a.46.46,0,0,0,.8308-.1846C76.6805,30,76.4036,30,76.1266,30"></path><path d="M66.8036,46.8923c-.0923-.1846-.0923-.2769-.1846-.4615a.1732.1732,0,0,0-.277,0c-.0923,0-.1846.0923-.2769.1846s-.0923.1846-.1846.2769c-.0923.2769.2769.2769.3692.0923h0a.3223.3223,0,0,0,.0923.1846c.0923.1846.4616-.0923.4616-.2769"></path><path d="M103.45,26.4c-.1846,0-.4615.3692-.1846.3692s.4615-.3692.1846-.3692"></path><path d="M104.65,27.1385h0c-.0923-.0923-.2769,0-.3692.0923h0c-.2769.4615.7384.2769.3692-.0923"></path><path d="M106.9574,26.9538a22.3655,22.3655,0,0,0-3.7846-1.3846c-.1846-.0923-.2769.0923-.0923.1846a11.276,11.276,0,0,0,1.2.4616c-.0923.0923-.0923.1846.0923.2769s.3692,0,.3692-.0923a12.0472,12.0472,0,0,1,1.9385.7385c.2769.0923.4615-.0923.2769-.1847"></path><path d="M103.6343,37.0154a2.695,2.695,0,0,0-.8307-.1846c-.1846,0-.3693.1846-.0923.2769.1846,0,.5538.0923.8307.0923.1846.0923.277-.0923.0923-.1846"></path><path d="M13.45,43.0154c-.2769,0-.3692.4615,0,.4615.2769-.0923.3693-.4615,0-.4615"></path><path d="M20.5574,45.3231c.1846-.7385-2.0308-.4616-3.6-1.3846.1846-.0923.2769-.277,0-.3693a.3716.3716,0,0,0-.4615.3693h-.9231c-.3692.0923-.4615.4615-.0923.4615a4.658,4.658,0,0,1-1.9385.9231,7.74,7.74,0,0,0-1.7538,1.1077c-.2769.1846,0,.3692.2769.1846a4.8328,4.8328,0,0,1,1.8462-.7385c-.0923.6462,1.5692.4616,1.5692-.3692.5538.7385,1.3846.2769,1.7538.6461-.3692.9231,1.1077.6462,1.3847.3693.3692-.2769.2769-.6462-.3693-.8308,1.2923-.5538,2.2154.1846,2.3077-.3692"></path><path d="M19.7266,42.3692c-.0923-.0923-.7384-.2769-.6461,0-.2769.0923-.2769.3693,0,.5539.3692.2769.9231-.1846.6461-.5539"></path><path d="M18.342,43.0154h-.4615c-.1846,0-.3692.3692-.1846.4615a.8321.8321,0,0,0,.4615.0923c.0923,0,.0923-.0923.1846-.0923.0923-.1846.1846-.3692,0-.4615"></path><path d="M20.5574,43.3846c-.2769-.4615-1.4769.0923-1.0154.5539a.5842.5842,0,0,0,.8308.0923c.1846-.1846.3692-.4616.1846-.6462"></path><path d="M17.6959,42.7385c-.0923-.277-.7385-.1847-.6462.0923.0923.1846.7385.1846.6462-.0923"></path><path d="M109.7266,44.9538a20.891,20.891,0,0,0-3.9692-.6461c-.1846,0-.2769.1846,0,.1846.4616,0,.9231.0923,1.2923.0923-.0923.0923,0,.2769.2769.2769s.4616-.0923.4616-.1846a13.0563,13.0563,0,0,1,1.8461.3693c.1847.0923.277-.0924.0923-.0924"></path><path d="M108.5266,49.2923c-.2769.1846.3693.7385.6462.3692.2769-.1846-.4615-.4615-.6462-.3692"></path><path d="M99.5728,45.7846c0-.2769-.4615-.5538-.5538-.2769,0,.2769.5538.5538.5538.2769"></path><path d="M5.2343,49.1077c-.4615.2769-.5538,1.5692-1.0153,2.0308a6.891,6.891,0,0,0-1.2,1.4769c-.4616.9231.3692.9231.7384.8308.2769-.0924.3692-.277.7385-.0924s.2769-.7384.3692-1.1076c.2769-1.2924,1.1077-1.7539,1.1077-2.3077.0923-.8308-.3692-1.0154-.7385-.8308"></path><path d="M2.4651,54.4615c-.2769.6462,1.3846.5539,1.5692.277.277-.4616-.4615-.8308-.7384-.7385a.9694.9694,0,0,0-.8308.4615"></path><path d="M108.8959,28.4308c-.0923-.1846-.3693,0-.1846.1846s.2769,0,.1846-.1846"></path><path d="M89.9728,36.6462c-.1846.6461.2769.6461.5538.5538.1847-.0923.3693-.7385-.0923-.6462,0-1.1076-1.2,0-.4615.0924"></path><path d="M95.6036,36.8308a1.5521,1.5521,0,0,0-.1846-1.0154.1983.1983,0,0,0-.3693.0923,6.3548,6.3548,0,0,0-.2769.7385c-.0923.2769.3692.2769.3692.0923.0923.1846.4616.2769.4616.0923"></path><path d="M61.45,37.7538a.3751.3751,0,0,0-.3692-.5538c-.6462,0-1.0154.4615-.9231.8308.0923.2769.8308.1846,1.2923-.277"></path><path d="M88.219,43.5692c-.277-.923-.6462-.6461-.7385-.2769-.0923-1.5692-.5539-2.7692-.6462-3.6923a.2839.2839,0,0,0,.3693-.3692.5709.5709,0,0,0-.4616-.3693v-.1846c.0923,0,.1846-.0923.0923-.1846a1.7623,1.7623,0,0,0-.7384-.2769c-.1846,0-.277.1846-.1846.2769s.2769.0923.3692.1846c0,2.3077,1.2,3.8769.5538,7.5693,0,.1846.1846.3692.277,0a7.6763,7.6763,0,0,0,.2769-2.4c.0923.1846.1846.3692.3692.3692.2769,0,.6462-.1846.4616-.6462"></path><path d="M84.8959,25.2c-.0923-.0923-.2769,0-.2769.1846,0,.0923.2769.4616.5538.2769.1846-.0923-.1846-.4615-.2769-.4615"></path><path d="M91.819,24.6462c-2.3077.0923-4.3385.3692-6.0924.4615h0c-.2769-.1846-.5538,0-.3692.1846l.3692.2769c.277.1846.5539,0,.3693-.1846l-.0923-.0923a21.1017,21.1017,0,0,0,2.3077-.1846c-.0923.0923.0923.1846.2769.1846a.2859.2859,0,0,0-.1846.3692c0,.277.4615.277.6461.1847.3693-.0924.277-.4616,0-.5539.0923-.0923.1846-.1846.0923-.2769.3693,0,.6462-.0923,1.0154-.0923-.1846.1846-.0923.3692.1846.4615.3693.0923.6462,0,.7385-.1846q0-.1384-.2769-.2769c.3692,0,.7384-.0923,1.1077-.0923.2769,0,.1846-.1846-.0923-.1846"></path><path d="M107.2343,49.9385c-1.4769-.3693-1.1077-1.0154.1846-.6462,1.0154.3692.4616.8308-.1846.6462"></path><path d="M101.3266,34.6154c-.2769,0-.4615.3692-.0923.3692s.4616-.3692.0923-.3692"></path><path d="M87.0189,38.1231c.0924-.0923-.2769-.3693-.3692-.4616-.2769-.1846-.3692.0923-.1846.1847a1.0158,1.0158,0,0,0,.5538.2769"></path><path d="M30.8036,48.6462c-.1846-.5539-.7385-1.2-1.1077-1.2-.2769,0-.4616.3692-1.0154.1846-.0923,0-.2769-.0923-.3692-.0923.4615-.5539-.9231-.7385-1.0154-.277l-.9231-.1846c0-.1846,0-.2769-.1846-.3692s-.4616-.0923-.5539.0923a.9314.9314,0,0,0-.8307-.0923c-.4616.1846-.4616.8308.0923,1.1077a.9594.9594,0,0,0,1.2-.1846,1.65,1.65,0,0,1,1.2.6461c-.5539.1846-.3693.4616.1846.5539.6461.1846,3.4154.3692,3.3231-.1846"></path><path d="M49.3574,34.8923c0-.2769,0-.5538-.2769-.6461-.0923-.0924-.2769-.0924-.4615.0923-.0924.0923-.3693.7384-.0924,1.0153s.6462-.3692.6462-.3692c0,.0923.1846,0,.1846-.0923"></path><path d="M47.419,34.1538c-.3693-.0923-.7385.277-.6462.5539a.397.397,0,0,0,.3692.3692c.0923,0,.1846-.0923.277-.0923.2769-.0923.5538-.9231,0-.8308"></path><path d="M101.419,25.1077a1.8369,1.8369,0,0,0-1.2-.0923c-.1847,0-.0924.1846,0,.1846.2769.0923.7384.0923,1.1076.1846.1847,0,.277-.1846.0924-.2769"></path><path d="M121.542,51.5077c-.2769,0-.2769.2769-.5538.2769-.4616,0-.6462-.3692-1.1077-.2769-.6462.1846-.9231,1.1077-1.3846,1.2-.7385.1846-.3693-.9231-1.4769-1.0154-.0924-.5538-.5539-1.1077-1.1077-1.0154-.3693.0923-.5539.7385-.5539.9231-1.1077.2769-1.2.8308-2.1231.9231-.4615.0923-.4615.7384-.1846.8307.7385.277,1.3846-.2769,2.0308,0,2.0308.8308,4.8923.9231,6.8308-.6461.1846-.2769.0923-1.2-.3693-1.2"></path><path d="M93.6651,49.2923a.9417.9417,0,0,0-.8308.1846l-.2769.2769c-.1846.277.1846.4616.3692.4616a2.0326,2.0326,0,0,0,.7385-.0923c.1846-.0923.3692-.1846.3692-.3693a.6133.6133,0,0,0-.3692-.4615"></path><path d="M96.619,48.0923h0c0-.0923,0-.2769-.1847-.2769H96.25a.9215.9215,0,0,0-.4615.3692c0,.0923-.0923.1846,0,.2769,0,.0923.1846.1847.2769.1847a.6532.6532,0,0,0,.5539-.5539"></path><path d="M95.7882,49.4769c-.0923-.2769-.5539-.2769-.8308-.2769-.1846,0-.1846.1846-.0923.2769-.0923.0923-.0923.1846-.1846.2769,0,.277.2769.3693.5538.3693.3693-.0923.7385-.3693.5539-.6462"></path><path d="M97.3574,48.0923a.1769.1769,0,0,1,.0923.2769c-.0923.0923-.1846,0-.2769,0a.1731.1731,0,0,1,0-.2769.1278.1278,0,0,1,.1846,0"></path><path d="M98.65,49.1077c-.1846-.3692-.8307-.1846-1.1077-.0923a.1985.1985,0,0,0-.1846.1846.48.48,0,0,0-.1846.3692c.0923.3693.5539.277.8308.1847.3692-.0924.8307-.277.6461-.6462"></path><path d="M109.2651,51.6c-.0923-.3692-.3692-.8308-.6461-.8308-.1847,0-.277.1846-.1847.3693-.0923,0-.1846,0-.1846.0923-.4615.3692.4616.923.8308.923a.4439.4439,0,0,0,.1846-.5538"></path><path d="M99.2959,50.6769a1.1158,1.1158,0,0,0-.9231-.2769c-.3692.0923-.0923.4615,0,.5538a5.88,5.88,0,0,0,.8308.1847.406.406,0,0,0,.0923-.4616"></path><path d="M111.7574,50.9538c-.0923,0-.1846-.0923-.2769-.0923-.1846,0-.2769.3693,0,.3693.3692,0,.5538-.277.2769-.277"></path><path d="M116.65,47.1692c0-.0923-.0923-.1846-.1846-.0923-.1846,0-.2769.0923-.4615.1846-.0923,0-.0923.0923,0,.1847,0,.0923.0923.2769.2769.1846.0923-.0923.4615-.1846.3692-.4616"></path><path d="M119.9728,51.5077c.1846.0923.4615.2769.5538,0s-.2769-.3692-.3692-.3692c-.2769.0923-.4615.2769-.1846.3692" fill="#221f1f"></path><path d="M119.2343,51.0462c-.0923-.0924-.3692,0-.3692.0923s0,.1846.1846.1846c.0923,0,.3693-.1846.1846-.2769"></path><path d="M114.0651,51.6923c.0923.1846-.5538.5539-.8308.1846s.6462-.4615.8308-.1846"></path><path d="M112.3113,52.9846a2.0955,2.0955,0,0,1-.3693-.0923.93.93,0,0,1,.277-.0923c.0923-.0923.1846-.2769,0-.3692a1.3725,1.3725,0,0,0-.5539-.0923.1982.1982,0,0,0-.0923.3692c-.3692.1846-.2769.4615-.1846.5538a2.5557,2.5557,0,0,0,.8308.0923c.2769,0,.2769-.2769.0923-.3692"></path><path d="M102.8036,26.2154a1.23,1.23,0,0,0-.4616-.2769c-.0923,0-.0923.0923-.0923.1846l-.2769-.2769a.1051.1051,0,1,0-.0923.1846.9215.9215,0,0,1,.3692.4615c.0923.0923.1846.0923.277-.0923v-.1846s.1846.0923.1846.1846.1846-.0923.0923-.1846"></path><path d="M103.0805,27.4154a.5081.5081,0,0,0-.4615.1846c-.0924.0923,0,.3692.0923.2769a.48.48,0,0,0,.3692-.1846c.1846-.0923.0923-.2769,0-.2769"></path><path d="M116.3728,50.4923a.1985.1985,0,0,0-.1846.1846c.0923.0923.1846.2769.2769.3693.1846.0923.2769,0,.1846-.0923.0923-.1847-.0923-.3693-.2769-.4616" fill="#221f1f"></path><path d="M99.7574,50.9538a15.8321,15.8321,0,0,1-3.4154-.6461,13.4953,13.4953,0,0,0-1.8461-.4615c-1.0154,0-2.2154.2769-2.6769-.3693-.0924-.1846-.3693.0923-.277.2769.5539,1.0154,2.4923.1847,3.7846.5539a22.763,22.763,0,0,0,4.3385.9231c.2769,0,.3692-.277.0923-.277" fill="#221f1f"></path><path d="M100.9574,50.2154a.4192.4192,0,0,0-.4615,0,.2807.2807,0,0,0,0,.3692.1731.1731,0,0,0,.2769,0c.2769.1846.2769-.2769.1846-.3692"></path><path d="M94.219,48.3692c-.1847,0-.3693.0923-.5539.0923-.0923.0923-.2769.1847-.1846.277.0923.2769.6461.0923.7385-.0923.1846-.0924.1846-.277,0-.277"></path><path d="M103.2651,50.3077a.3371.3371,0,0,0,.1846.4615c-.1846,0-.1846.1846,0,.277a1.0418,1.0418,0,0,0,.7385.0923c.0923,0,0-.1847,0-.277.4615-.3692-.7385-.8307-.9231-.5538" fill="#221f1f"></path><path d="M110.1882,52.5231a16.49,16.49,0,0,0-7.6616-1.4769c-.2769,0-.1846.3692.0924.3692A18.3268,18.3268,0,0,1,110.0959,52.8c.1846.1846.3692-.1846.0923-.2769" fill="#221f1f"></path><path d="M107.6959,36.7385a3.0716,3.0716,0,0,1,1.2-1.2923c.0923-.0924.1846.0923.0923.1846a2.8922,2.8922,0,0,0-1.1077,1.2c0,.0923-.1846,0-.1846-.0923" fill="#fff"></path><path d="M108.5266,36.9231A5.8649,5.8649,0,0,0,109.0805,36c.0923-.1846.2769-.0923.1846.0923a4.89,4.89,0,0,1-.5538.9231c-.0923.0923-.277,0-.1847-.0923" fill="#fff"></path><path d="M115.9113,51.2308c-.6462.3692.3692,1.1077.5538,1.0154.2769-.0924,0-1.2924-.5538-1.0154" fill="#fff"></path><path d="M119.8805,51.7846c-.6462.2769.3692,1.0154.5538.9231s0-1.1077-.5538-.9231" fill="#fff"></path><path d="M65.9728,59.8154a21.2007,21.2007,0,0,1-4.8923-1.2,13.2411,13.2411,0,0,1-4.3385-2.9539c-2.2154-2.4-3.5077-5.9077-3.8769-10.3384a25.064,25.064,0,0,1-.0923-2.6769v-25.2c0-5.8154,1.2923-10.1539,3.9692-13.0154a12.8818,12.8818,0,0,1,4.4308-3.0462A17.06,17.06,0,0,1,65.7882.2769s0,14.6769.0923,29.0769c0,6.4616-.0923,12.1847,0,17.3539,0,.0923.1846.4615.2769.7385.0923.1846.0923.2769.1846.3692a2.13,2.13,0,0,0,.4616.6461,1.04,1.04,0,0,0,.6461.3693L65.9728,59.8154" fill="#030404"></path><g><path d="M89.419,21.3231V18.6462l-2.4923-3.6924h.923l2.0308,2.9539,2.0308-2.9539h.923L90.342,18.6462v2.6769Z" fill="#221f1f"></path><path d="M93.5728,21.3231V14.9538h4.1538v.7385H94.3113v2.0308h3.323v.7384h-3.323v2.2154h3.4153v.7385H93.5728Z" fill="#221f1f"></path><path d="M103.6343,21.3231l-.5538-1.3846H99.85l-.5538,1.3846h-.9231l2.5846-6.3693h1.0154l2.5846,6.3693Zm-2.2153-5.6308-1.3847,3.4154h2.677Z" fill="#221f1f"></path><path d="M109.0805,21.3231l-1.6616-2.5846h-1.2923v2.5846h-.8307V14.9538h2.5846a1.8666,1.8666,0,0,1,2.0308,1.9385,1.8247,1.8247,0,0,1-1.6616,1.8462l1.7539,2.5846Zm0-4.5231a1.1889,1.1889,0,0,0-1.2923-1.2h-1.6616v2.4923h1.6616A1.26,1.26,0,0,0,109.0805,16.8Z" fill="#221f1f"></path><path d="M110.8343,20.4l.4616-.6462a2.8135,2.8135,0,0,0,2.0307.9231c1.1077,0,1.477-.6461,1.477-1.1077,0-1.6615-3.7847-.7384-3.7847-3.0461,0-1.0154.9231-1.7539,2.2154-1.7539a3.12,3.12,0,0,1,2.3077.9231l-.4615.5539a2.25,2.25,0,0,0-1.8462-.7385c-.7384,0-1.2923.3692-1.2923,1.0154,0,1.4769,3.7846.6461,3.7846,3.0461,0,.9231-.6461,1.8462-2.4,1.8462A3.15,3.15,0,0,1,110.8343,20.4Z" fill="#221f1f"></path></g><path d="M50.8343,48.2769v.1846a13.62,13.62,0,0,1-3.6,7.3847c-2.6769,2.7692-6.6461,4.0615-11.8153,4.0615-5.5385,0-9.5077-1.2923-12.0924-3.9692C20.742,53.3538,19.542,49.2,19.542,43.4769v-7.2h13.2v7.1077c0,2.4.1846,3.9692.5539,4.5231a2.4119,2.4119,0,0,0,2.123.8308,2.6409,2.6409,0,0,0,1.5693-.3693.3223.3223,0,0,0,.1846-.0923H50.8343" fill="#030404"></path></g></svg> 